<svg width="24" height="28" viewBox="0 0 24 28" fill="none" xmlns="http://www.w3.org/2000/svg">
<path d="M11.996 16.5295C9.271 16.5295 7.04492 14.3163 7.04492 11.5784C7.04492 8.84063 9.271 6.64014 11.996 6.64014C14.721 6.64014 16.9471 8.85342 16.9471 11.5912C16.9471 14.3291 14.721 16.5295 11.996 16.5295ZM11.996 8.55917C10.3329 8.55917 8.96395 9.91528 8.96395 11.5912C8.96395 13.2672 10.3201 14.6233 11.996 14.6233C13.672 14.6233 15.0281 13.2672 15.0281 11.5912C15.0281 9.91528 13.6592 8.55917 11.996 8.55917Z" fill="white"/>
<path d="M11.996 27.5189C10.1026 27.5189 8.19636 26.8025 6.71231 25.3824C2.93822 21.749 -1.23248 15.9535 0.341129 9.05783C1.76121 2.80179 7.22406 0 11.996 0C11.996 0 11.996 0 12.0088 0C16.7808 0 22.2437 2.80179 23.6638 9.07062C25.2246 15.9663 21.0539 21.749 17.2798 25.3824C15.7957 26.8025 13.8895 27.5189 11.996 27.5189ZM11.996 1.91903C8.27313 1.91903 3.48834 3.90203 2.22178 9.48002C0.840077 15.5058 4.62697 20.7 8.05564 23.9879C10.2689 26.1244 13.736 26.1244 15.9493 23.9879C19.3651 20.7 23.152 15.5058 21.7959 9.48002C20.5165 3.90203 15.719 1.91903 11.996 1.91903Z" fill="white"/>
</svg>
