<svg width="20" height="20" viewBox="0 0 20 20" fill="none" xmlns="http://www.w3.org/2000/svg">
<path d="M10 20C15.5228 20 20 15.5228 20 10C20 4.47715 15.5228 0 10 0C4.47715 0 0 4.47715 0 10C0 15.5228 4.47715 20 10 20Z" fill="#FFC843"/>
<path d="M10.0013 18.3327C14.6037 18.3327 18.3346 14.6017 18.3346 9.99935C18.3346 5.39698 14.6037 1.66602 10.0013 1.66602C5.39893 1.66602 1.66797 5.39698 1.66797 9.99935C1.66797 14.6017 5.39893 18.3327 10.0013 18.3327Z" fill="#D38700"/>
<path d="M7.11865 12.1179L9.80887 14.8081C9.9151 14.9144 10.0871 14.9144 10.1933 14.8081L12.8813 12.1201C12.9873 12.0141 12.9875 11.8424 12.8818 11.7361L12.1389 10.9901C12.0329 10.8837 11.8607 10.8835 11.7542 10.9897L10.1924 12.5492C10.0869 12.6546 9.91599 12.6552 9.80976 12.5506L8.2231 10.989C8.11554 10.8832 7.94265 10.8852 7.83754 10.9935L7.11599 11.7361C7.01243 11.8428 7.01354 12.0128 7.11865 12.1179Z" fill="#FFC843"/>
<path d="M7.11865 7.88317L9.80887 5.19295C9.9151 5.08673 10.0871 5.08673 10.1933 5.19295L12.8813 7.88095C12.9873 7.98695 12.9875 8.15873 12.8818 8.26495L12.1389 9.01095C12.0329 9.11739 11.8607 9.11761 11.7542 9.01139L10.1924 7.45184C10.0869 7.3465 9.91599 7.34584 9.80976 7.4505L8.2231 9.01206C8.11554 9.11784 7.94265 9.11584 7.83754 9.00761L7.11599 8.26495C7.01243 8.15828 7.01354 7.98828 7.11865 7.88317Z" fill="#FFC843"/>
<path d="M5.19298 10.1934L5.93853 10.9389C6.04475 11.0452 6.21675 11.0452 6.32298 10.9389L7.06786 10.194C7.17409 10.0878 7.17409 9.91582 7.06786 9.8096L6.32231 9.06404C6.21609 8.95782 6.04409 8.95782 5.93786 9.06404L5.19275 9.80915C5.08675 9.91515 5.08675 10.0872 5.19298 10.1934Z" fill="#FFC843"/>
<path d="M9.06407 10.1934L9.80963 10.9389C9.91585 11.0452 10.0878 11.0452 10.1941 10.9389L10.939 10.194C11.0452 10.0878 11.0452 9.91582 10.939 9.8096L10.1934 9.06404C10.0872 8.95782 9.91518 8.95782 9.80896 9.06404L9.06385 9.80915C8.95785 9.91515 8.95785 10.0874 9.06407 10.1934Z" fill="#FFC843"/>
<path d="M12.9311 10.1934L13.6766 10.9389C13.7829 11.0452 13.9549 11.0452 14.0611 10.9389L14.806 10.194C14.9122 10.0878 14.9122 9.91582 14.806 9.8096L14.0604 9.06404C13.9542 8.95782 13.7822 8.95782 13.676 9.06404L12.9309 9.80915C12.8251 9.91515 12.8251 10.0874 12.9311 10.1934Z" fill="#FFC843"/>
</svg>
