<svg width="20" height="20" viewBox="0 0 20 20" fill="none" xmlns="http://www.w3.org/2000/svg">
<path d="M19.7009 12.4183C18.3648 17.7783 12.9342 21.0366 7.58187 19.7004C2.22171 18.3643 -1.03657 12.934 0.299599 7.58171C1.63569 2.22171 7.05835 -1.03657 12.4185 0.299599C17.7709 1.62788 21.037 7.0582 19.7009 12.4183Z" fill="url(#paint0_linear_172_1538)"/>
<path d="M14.7617 8.75391C14.957 7.42578 13.9492 6.70703 12.5586 6.23047L13.0117 4.42578L11.918 4.15234L11.4805 5.91016C11.1914 5.83985 10.8945 5.76953 10.5977 5.70703L11.0352 3.94141L9.94141 3.66797L9.4961 5.46484C9.25391 5.41016 9.01953 5.35547 8.79297 5.30078V5.29297L7.27734 4.91797L6.98828 6.08985C6.98828 6.08985 7.80078 6.27735 7.78516 6.28516C8.23047 6.39453 8.3086 6.69141 8.29297 6.92578L7.77735 8.98047C7.8086 8.98829 7.84766 8.9961 7.89453 9.01954C7.85547 9.01172 7.81641 9.00391 7.77735 8.98829L7.0586 11.8633C7.00391 11.9961 6.86328 12.1992 6.55859 12.1211C6.56641 12.1367 5.76172 11.9258 5.76172 11.9258L5.21484 13.1836L6.64453 13.543C6.91016 13.6133 7.16797 13.6758 7.42578 13.7461L6.97266 15.5664L8.06641 15.8399L8.51953 14.0352C8.81641 14.1133 9.11328 14.1914 9.39453 14.2617L8.94922 16.0586L10.043 16.332L10.4961 14.5117C12.3711 14.8633 13.7774 14.7227 14.3633 13.0274C14.8399 11.668 14.3399 10.8789 13.3555 10.3633C14.082 10.1992 14.6211 9.72266 14.7617 8.75391ZM12.2539 12.2695C11.918 13.6289 9.6211 12.8945 8.87891 12.707L9.48047 10.293C10.2227 10.4805 12.6133 10.8477 12.2539 12.2695ZM12.5977 8.73047C12.2852 9.97266 10.3789 9.33985 9.76172 9.1836L10.3086 6.9961C10.9258 7.15235 12.918 7.44141 12.5977 8.73047Z" fill="white"/>
<defs>
<linearGradient id="paint0_linear_172_1538" x1="999.46" y1="-0.48" x2="999.46" y2="1999.8" gradientUnits="userSpaceOnUse">
<stop stop-color="#F9AA4B"/>
<stop offset="1" stop-color="#F7931A"/>
</linearGradient>
</defs>
</svg>
