<svg width="20" height="20" viewBox="0 0 20 20" fill="none" xmlns="http://www.w3.org/2000/svg">
<path d="M10 20C15.5228 20 20 15.5228 20 10C20 4.47715 15.5228 0 10 0C4.47715 0 0 4.47715 0 10C0 15.5228 4.47715 20 10 20Z" fill="#627EEA"/>
<path d="M10.3125 2.5V8.04375L14.9981 10.1375L10.3125 2.5Z" fill="white" fill-opacity="0.602"/>
<path d="M10.3112 2.5L5.625 10.1375L10.3112 8.04375V2.5Z" fill="white"/>
<path d="M10.3125 13.7298V17.4966L15.0013 11.0098L10.3125 13.7298Z" fill="white" fill-opacity="0.602"/>
<path d="M10.3112 17.4966V13.7291L5.625 11.0098L10.3112 17.4966Z" fill="white"/>
<path d="M10.3125 12.86L14.9981 10.1394L10.3125 8.04688V12.86Z" fill="white" fill-opacity="0.2"/>
<path d="M5.625 10.1394L10.3112 12.86V8.04688L5.625 10.1394Z" fill="white" fill-opacity="0.602"/>
</svg>
