<svg width="20" height="21" viewBox="0 0 20 21" fill="none" xmlns="http://www.w3.org/2000/svg">
<path d="M14.6416 1.77587C14.121 2.29481 13.6441 2.85726 13.2202 3.457L13.0862 3.41349C12.3132 3.16179 11.5122 3.00642 10.7049 2.95359C10.4618 2.93495 9.55473 2.93495 9.25862 2.95359C8.36406 3.01263 7.67833 3.14625 6.8991 3.4166C6.86793 3.42903 6.83988 3.43835 6.81182 3.44768C6.37234 2.85105 5.88298 2.29171 5.34375 1.77898C7.9308 0.45831 10.9573 0.29983 13.666 1.34083C13.9558 1.44959 14.2395 1.57699 14.5169 1.71372L14.6416 1.77587Z" fill="#F00500"/>
<path d="M19.4662 13.5626C19.0735 14.6782 18.4844 15.713 17.7207 16.6142C17.3062 17.0989 16.848 17.5433 16.3555 17.9472C15.2022 18.8733 13.8557 19.5352 12.4188 19.8832C10.8292 20.2654 9.17096 20.2654 7.58132 19.8832C6.1413 19.5352 4.7979 18.8733 3.64464 17.9472C3.15216 17.5433 2.69397 17.0989 2.27942 16.6142C0.0819817 14.0256 -0.585042 10.4707 0.533937 7.26695C0.745888 6.67342 1.01083 6.10165 1.32875 5.55785C1.47525 5.30925 1.65603 5.02958 1.74331 4.91461C2.04253 6.19798 2.41033 7.32599 2.54747 7.73306C2.53812 7.75482 2.52566 7.77968 2.51319 7.80143C1.78694 9.26814 1.39421 10.682 1.3007 12.186C1.3007 12.2047 1.29759 12.2264 1.29759 12.2451C1.27265 12.6957 1.28512 12.9101 1.35992 13.1929C1.59369 14.0785 2.31371 15.0542 3.44204 16.0113C5.29038 17.5775 7.79639 18.7086 9.6946 18.8391C11.6739 18.9727 14.5944 17.8198 16.5394 16.1356C16.8448 15.8653 17.1316 15.5794 17.3997 15.2748C17.5929 15.0511 17.8797 14.6658 17.8578 14.6658C17.8516 14.6658 17.8578 14.6596 17.8703 14.6534C17.8797 14.6471 17.889 14.6378 17.8828 14.6316C17.8797 14.6285 17.8859 14.6192 17.8953 14.6161C17.9046 14.613 17.9108 14.6067 17.9077 14.6005C17.9046 14.5943 17.9077 14.5881 17.9202 14.585C17.9295 14.5819 17.9327 14.5726 17.9295 14.5663C17.9264 14.5601 17.9295 14.5539 17.9358 14.5539C17.942 14.5539 17.9482 14.5446 17.9482 14.5384C17.9482 14.5322 17.9545 14.5228 17.9607 14.5228C17.9669 14.5228 17.9732 14.5166 17.9732 14.5104C17.9825 14.4856 17.9981 14.4607 18.0137 14.4389C18.0604 14.3675 18.2475 14.035 18.2724 13.979C18.4501 13.5782 18.5623 13.2208 18.6153 12.8635C18.6402 12.6926 18.6558 12.3787 18.6433 12.3041C18.6402 12.2917 18.6402 12.2699 18.6371 12.2358C18.6308 12.1736 18.6277 12.0804 18.6215 11.9872C18.6153 11.8473 18.6028 11.6516 18.5934 11.5552C18.4594 10.1444 18.0979 8.99158 17.4121 7.77035C17.3841 7.72374 17.3591 7.67713 17.3436 7.63984C17.3373 7.63052 17.3342 7.6212 17.3311 7.61498C17.4277 7.32599 17.8236 6.11719 18.1384 4.73438L18.1446 4.74059L18.1914 4.80274C18.2724 4.9115 18.4875 5.23467 18.5841 5.39005C19.0236 6.10476 19.3664 6.8723 19.6096 7.67402C20.1737 9.60375 20.127 11.6609 19.4662 13.5626Z" fill="#F00500"/>
<path d="M15.4216 9.84839C15.4122 9.89811 15.2657 10.0473 15.1193 10.156C14.6891 10.4699 13.9192 10.762 13.1369 10.9018C12.6912 10.9826 12.2454 10.995 12.1114 10.9298C12.0241 10.8863 12.0117 10.8521 12.0428 10.7402C12.1083 10.5072 12.3202 10.2524 12.6506 10.0131C12.819 9.89189 13.5016 9.4786 13.8195 9.30459C14.3431 9.0187 14.767 8.84779 15.0538 8.80739C15.1442 8.79497 15.2533 8.79186 15.2876 8.80739C15.3437 8.82915 15.406 8.99384 15.4309 9.19272C15.4434 9.29837 15.4372 9.76449 15.4216 9.84839Z" fill="black"/>
<path d="M8.07795 10.8779C8.05924 10.9152 7.96574 10.9556 7.85976 10.9711C7.75379 10.9866 7.42963 10.9773 7.24573 10.9556C6.58494 10.8686 5.88363 10.6666 5.37245 10.418C5.08569 10.2782 4.87997 10.1383 4.72724 9.98605L4.63997 9.89593L4.63062 9.77785C4.61503 9.57276 4.61815 9.24959 4.64309 9.13461C4.65867 9.03828 4.69296 8.94505 4.73971 8.86115C4.76465 8.83008 4.76465 8.83008 4.87686 8.83008C5.014 8.83008 5.12933 8.85183 5.31634 8.91087C5.69973 9.02896 6.27013 9.31484 6.9652 9.73124C7.53872 10.0731 7.75379 10.2409 7.91898 10.4708C8.03119 10.6138 8.106 10.8157 8.07795 10.8779Z" fill="black"/>
<path d="M12.4882 15.2031C12.4882 15.2124 12.4508 15.3615 12.4041 15.5387C12.3573 15.7158 12.3199 15.8587 12.3199 15.8649C12.2856 15.868 12.2545 15.8712 12.2202 15.868H12.1204L11.9833 16.1912C11.9085 16.3683 11.8399 16.533 11.8305 16.5579L11.8118 16.6014L11.7464 16.4957L11.6809 16.3901V15.5293L11.656 15.5355C11.603 15.548 11.2259 15.5977 11.0607 15.6132C10.3781 15.6816 9.69233 15.6661 9.01284 15.5697C8.90375 15.5542 8.81024 15.5418 8.80712 15.5449C8.80401 15.548 8.80713 15.7469 8.81336 15.9923L8.82271 16.4336L8.76972 16.5144C8.74167 16.5579 8.71362 16.5952 8.71362 16.5983C8.70427 16.6076 8.6731 16.5579 8.60141 16.415C8.52348 16.2658 8.46738 16.1073 8.42686 15.9426L8.40504 15.8525L8.30842 15.8587L8.21179 15.868L8.18685 15.7531C8.17439 15.6909 8.1588 15.5946 8.15257 15.5418L8.14322 15.4423L8.06218 15.3709C8.01542 15.3305 7.96867 15.2901 7.95932 15.2838C7.94374 15.2714 7.9375 15.2497 7.9375 15.231V15.1937L8.32712 15.1968L8.71673 15.1999L8.7292 15.2403L8.74167 15.2807L8.8757 15.287C8.95051 15.2901 9.18739 15.2963 9.39934 15.3025L9.78896 15.3118L9.8887 15.1564L9.99156 15.0011H10.1225L10.1194 14.6779L10.1162 14.3547L9.94481 14.2801C9.39311 14.0378 9.06895 13.7612 8.94739 13.4256C8.92245 13.3572 8.92245 13.3324 8.91622 13.0216C8.9131 12.714 8.9131 12.686 8.93492 12.6177C8.97856 12.4623 9.10012 12.3411 9.25596 12.3007C9.30895 12.2852 9.44922 12.2852 10.1848 12.2852L11.0513 12.2883L11.1479 12.3349C11.2633 12.3908 11.3163 12.4312 11.3817 12.5182C11.4565 12.6177 11.4783 12.6953 11.4783 12.8849C11.4783 13.1552 11.4596 13.3883 11.4316 13.4815C11.3911 13.6089 11.3287 13.7301 11.2508 13.8389C11.095 14.0378 10.8113 14.2366 10.5526 14.3268L10.4778 14.3547L10.4809 14.681L10.484 15.0073L10.5526 15.0135L10.6212 15.0197L10.7147 15.1595L10.8051 15.2994H11.2227C11.4534 15.2994 11.656 15.3025 11.6747 15.3056C11.7059 15.3118 11.7121 15.3087 11.7433 15.2559L11.7807 15.1999H12.1391C12.4072 15.1875 12.4882 15.1937 12.4882 15.2031Z" fill="black"/>
<path d="M10.8429 16.0962C10.7837 16.1303 10.7432 16.1459 10.7338 16.1397C10.7245 16.1366 10.6808 16.0993 10.6341 16.0651L10.5499 15.9967L10.4626 16.0899C10.2725 16.295 10.2663 16.3044 10.2102 16.3075C10.1229 16.3168 10.1042 16.3013 9.99823 16.1428C9.94212 16.062 9.89848 15.9936 9.89848 15.9936C9.89848 15.9936 9.85796 15.9874 9.81121 15.9843L9.72393 15.975L9.68341 16.0589L9.64289 16.1428L9.5712 16.121C9.5151 16.1024 9.459 16.0806 9.40601 16.0558L9.3125 16.0092V15.832L10.1416 15.8351L10.9707 15.8382L10.9738 15.9221C10.9769 16.0216 10.9801 16.0185 10.8429 16.0962Z" fill="black"/>
<path d="M18.6402 12.3049C18.6371 12.2924 18.6371 12.2707 18.634 12.2365C17.8859 12.1557 15.7508 12.106 13.7685 13.7374C13.7685 13.7374 13.1295 10.8164 10.1372 10.8164C7.14498 10.8164 6.03535 13.7374 6.03535 13.7374C4.35844 11.9382 2.11425 12.0687 1.30385 12.1868C1.30385 12.2054 1.30073 12.2272 1.30073 12.2458C1.2758 12.6964 1.28827 12.9108 1.36307 13.1936C1.59684 14.0792 2.31685 15.055 3.44518 16.0121C5.29353 17.5782 7.79954 18.7093 9.69775 18.8398C11.677 18.9735 14.5976 17.8206 16.5425 16.1364C16.848 15.866 17.1347 15.5801 17.4028 15.2756C17.5961 15.0519 17.8828 14.6665 17.861 14.6665C17.8548 14.6665 17.861 14.6603 17.8735 14.6541C17.8828 14.6479 17.8922 14.6386 17.8859 14.6324C17.8828 14.6292 17.889 14.6199 17.8984 14.6168C17.9077 14.6137 17.914 14.6075 17.9109 14.6013C17.9077 14.5951 17.9109 14.5888 17.9233 14.5857C17.9327 14.5826 17.9358 14.5733 17.9327 14.5671C17.9296 14.5609 17.9327 14.5547 17.9389 14.5547C17.9452 14.5547 17.9514 14.5453 17.9514 14.5391C17.9514 14.5329 17.9576 14.5236 17.9639 14.5236C17.9701 14.5236 17.9763 14.5174 17.9763 14.5112C17.9857 14.4863 18.0013 14.4614 18.0168 14.4397C18.0636 14.3682 18.2506 14.0357 18.2755 13.9798C18.4532 13.5789 18.5654 13.2216 18.6184 12.8642C18.6371 12.6933 18.6527 12.3795 18.6402 12.3049ZM10.8479 16.096C10.7887 16.1301 10.7482 16.1457 10.7388 16.1395C10.7295 16.1364 10.6858 16.0991 10.6391 16.0649L10.5549 15.9965L10.4676 16.0897C10.2775 16.2948 10.2713 16.3042 10.2152 16.3073C10.1279 16.3166 10.1092 16.3011 10.0032 16.1426C9.94711 16.0618 9.90347 15.9934 9.90347 15.9934C9.90347 15.9934 9.86295 15.9872 9.81619 15.9841L9.72892 15.9748L9.6884 16.0587L9.64788 16.1426L9.57619 16.1208C9.52008 16.1022 9.46398 16.0804 9.41099 16.0556L9.31748 16.009V15.8318L10.1466 15.8349L10.9757 15.838L10.9788 15.9219C10.9819 16.0214 10.985 16.0183 10.8479 16.096ZM12.4064 15.5366C12.3596 15.7137 12.3222 15.8567 12.3222 15.8629C12.2879 15.866 12.2568 15.8691 12.2225 15.866H12.1227L11.9887 16.1923C11.9139 16.3694 11.8453 16.5341 11.836 16.559L11.8173 16.6025L11.7518 16.4968L11.6864 16.3912V15.5304L11.6614 15.5366C11.6084 15.5491 11.2313 15.5988 11.0661 15.6143C10.3835 15.6827 9.69775 15.6671 9.01826 15.5708C8.90916 15.5553 8.81566 15.5428 8.81254 15.5459C8.80942 15.5491 8.81254 15.7479 8.81878 15.9934L8.82812 16.4347L8.77514 16.5155C8.74709 16.559 8.71903 16.5963 8.71903 16.5994C8.70968 16.6087 8.67851 16.559 8.60682 16.416C8.5289 16.2669 8.4728 16.1084 8.43228 15.9437L8.41046 15.8536L8.31383 15.8598L8.21721 15.8691L8.19227 15.7541C8.1798 15.692 8.16422 15.5957 8.15798 15.5428L8.14864 15.4434L8.06759 15.3719C8.02084 15.3315 7.97409 15.2911 7.96474 15.2849C7.94915 15.2725 7.94292 15.2507 7.94292 15.2321V15.1948L8.33253 15.1979L8.72215 15.201L8.73462 15.2414L8.74709 15.2818L8.88111 15.288C8.95592 15.2911 9.19281 15.2973 9.40476 15.3036L9.79437 15.3129L9.89412 15.1575L9.99697 15.0021H10.1279L10.1248 14.679L10.1217 14.3558L9.95022 14.2812C9.39852 14.0388 9.07436 13.7623 8.9528 13.4267C8.92787 13.3583 8.92787 13.3334 8.92163 13.0227C8.91852 12.7151 8.91852 12.6871 8.94033 12.6187C8.98397 12.4634 9.10553 12.3422 9.26138 12.3018C9.31437 12.2862 9.45463 12.2862 10.1902 12.2862L11.0567 12.2893L11.1534 12.3359C11.2687 12.3919 11.3217 12.4323 11.3871 12.5193C11.4619 12.6187 11.4838 12.6964 11.4838 12.886C11.4838 13.1563 11.4651 13.3894 11.437 13.4826C11.3965 13.61 11.3341 13.7312 11.2562 13.84C11.1004 14.0388 10.8167 14.2377 10.558 14.3278L10.4832 14.3558L10.4863 14.6821L10.4895 15.0084L10.558 15.0146L10.6266 15.0208L10.7201 15.1606L10.8105 15.3005H11.2282C11.4588 15.3005 11.6614 15.3036 11.6801 15.3067C11.7113 15.3129 11.7175 15.3098 11.7487 15.257L11.7861 15.201H12.1445C12.4219 15.201 12.503 15.2041 12.503 15.2134C12.4936 15.2103 12.4531 15.3626 12.4064 15.5366Z" fill="white"/>
<path d="M18.6106 11.9866C18.6044 11.8468 18.5919 11.651 18.5826 11.5547C18.4486 10.1439 18.087 8.99101 17.4013 7.76979C17.3732 7.72317 17.3483 7.67656 17.3327 7.63927C17.3265 7.62995 17.3234 7.62063 17.3202 7.61441C17.4169 7.32542 17.8127 6.11662 18.1275 4.73381C18.5545 2.85691 18.8257 0.66305 17.9966 0.00427039C17.9966 0.00427039 16.5628 -0.101383 14.6428 1.77552C14.1223 2.29446 13.6454 2.85691 13.2215 3.45665L13.0874 3.41314C12.3144 3.16144 11.5134 3.00607 10.7061 2.95324C10.463 2.93459 9.55596 2.93459 9.25985 2.95324C8.36529 3.01228 7.67956 3.1459 6.90033 3.41625C6.86916 3.42868 6.84111 3.438 6.81306 3.44732C6.37357 2.85069 5.88421 2.29135 5.34498 1.77862C3.34703 -0.107598 1.86025 0.00116275 1.86025 0.00116275C0.981276 0.681694 1.2805 2.97499 1.73557 4.91404C2.0348 6.19742 2.4026 7.32542 2.53974 7.7325C2.53039 7.75425 2.51792 7.77911 2.50546 7.80086C1.77921 9.26758 1.38648 10.6815 1.29297 12.1855C2.10649 12.0674 4.34756 11.9338 6.02759 13.7361C6.02759 13.7361 7.13722 10.8151 10.1295 10.8151C13.1217 10.8151 13.7607 13.7361 13.7607 13.7361C15.7431 12.1047 17.8782 12.1575 18.6262 12.2352C18.6231 12.173 18.6169 12.0798 18.6106 11.9866ZM3.12884 6.56099C3.12884 6.56099 1.96311 3.65552 2.26233 1.99615C2.3122 1.71647 2.40571 1.47099 2.55221 1.28454C2.55221 1.28454 3.87379 1.41505 6.00577 3.77671C6.00577 3.77671 5.60057 3.97248 5.05822 4.38888C5.05822 4.38888 5.05511 4.39199 5.05199 4.39199C4.46289 4.84257 3.70859 5.55728 3.12884 6.56099ZM8.07541 10.8772C8.05671 10.9145 7.9632 10.9549 7.85723 10.9705C7.75125 10.986 7.42709 10.9767 7.24319 10.9549C6.5824 10.8679 5.8811 10.6659 5.36992 10.4173C5.08316 10.2775 4.87744 10.1377 4.72471 9.9854L4.63744 9.89528L4.62809 9.7772C4.6125 9.5721 4.61562 9.24893 4.64056 9.13396C4.65614 9.03763 4.69043 8.9444 4.73718 8.8605C4.76211 8.82942 4.76212 8.82942 4.87433 8.82942C5.01147 8.82942 5.1268 8.85118 5.31381 8.91022C5.69719 9.0283 6.26759 9.31419 6.96267 9.73059C7.53619 10.0724 7.75125 10.2402 7.91645 10.4702C8.02866 10.6131 8.10347 10.8151 8.07541 10.8772ZM15.4189 9.84867C15.4096 9.89839 15.2631 10.0475 15.1166 10.1563C14.6864 10.4702 13.9165 10.7623 13.1342 10.9021C12.6885 10.9829 12.2428 10.9953 12.1087 10.9301C12.0215 10.8866 12.009 10.8524 12.0402 10.7405C12.1056 10.5074 12.3176 10.2526 12.648 10.0134C12.8163 9.89217 13.4989 9.47888 13.8168 9.30487C14.3405 9.01898 14.7644 8.84807 15.0511 8.80767C15.1415 8.79524 15.2506 8.79214 15.2849 8.80767C15.341 8.82943 15.4033 8.99412 15.4283 9.193C15.4407 9.29865 15.4345 9.76477 15.4189 9.84867ZM14.9015 4.38888L14.8953 4.38577C14.3716 3.96938 13.9789 3.77361 13.9789 3.77361C16.0392 1.41194 17.314 1.28143 17.314 1.28143C17.4543 1.47099 17.5447 1.71337 17.5945 1.99304C17.8844 3.65242 16.7592 6.56099 16.7592 6.56099C16.2885 5.72508 15.6558 4.98551 14.9015 4.38888Z" fill="#FFA409"/>
<path d="M17.5953 1.9909C17.3522 1.95983 16.2021 1.95361 14.8992 4.38675L14.8929 4.38364C14.3693 3.96724 13.9766 3.77147 13.9766 3.77147C16.0369 1.40981 17.3117 1.2793 17.3117 1.2793C17.4551 1.46885 17.5454 1.71123 17.5953 1.9909Z" fill="#FF9300"/>
<path d="M16.7592 6.56045C16.2855 5.72144 15.6559 4.98497 14.8984 4.38834C16.2013 1.95521 17.3483 1.96143 17.5946 1.9925C17.8845 3.65499 16.7592 6.56045 16.7592 6.56045Z" fill="#FF8300"/>
<path d="M17.6444 2.00151C17.6288 1.9984 17.6132 1.99529 17.5977 1.99219L17.6444 2.00151Z" fill="#FF8300"/>
<path d="M6.00827 3.77147C6.00827 3.77147 5.60307 3.96724 5.06073 4.38364C5.06073 4.38364 5.05761 4.38675 5.05449 4.38675C3.70486 1.95051 2.51731 1.95983 2.26172 1.9909C2.31159 1.71123 2.4051 1.46574 2.5516 1.2793C2.55471 1.2793 3.87629 1.40981 6.00827 3.77147Z" fill="#FF9300"/>
<path d="M5.06064 4.38834C4.46842 4.84203 3.71413 5.55364 3.13438 6.56045C3.13438 6.56045 1.96864 3.65499 2.26787 1.9925C2.52034 1.96143 3.71101 1.95521 5.06064 4.38834Z" fill="#FF8300"/>
<path d="M2.26471 1.99219C2.24913 1.99529 2.23043 1.9984 2.21484 2.00151L2.26471 1.99219Z" fill="#FF8300"/>
<path d="M13.6101 8.17399C13.6101 8.17399 12.6127 8.23614 12.7373 7.45928C12.862 6.68242 13.6413 6.5892 13.8594 6.62027C14.0776 6.65134 14.9504 6.96209 14.7945 7.61465C14.6387 8.26722 14.4205 8.14292 14.2958 8.17399C14.1711 8.20507 13.6101 8.17399 13.6101 8.17399Z" fill="white"/>
<path d="M6.25071 8.17399C6.25071 8.17399 5.2533 8.23614 5.37797 7.45928C5.50265 6.68242 6.28188 6.5892 6.50007 6.62027C6.71825 6.65134 7.59099 6.96209 7.43515 7.61465C7.2793 8.26722 7.06112 8.14292 6.93644 8.17399C6.81176 8.20507 6.25071 8.17399 6.25071 8.17399Z" fill="white"/>
</svg>
