<svg width="18" height="15" viewBox="0 0 18 15" fill="none" xmlns="http://www.w3.org/2000/svg">
<path id="Vector" d="M16.2 0H1.8C0.81 0 0.00899999 0.81 0.00899999 1.8L0 12.6C0 13.59 0.81 14.4 1.8 14.4H16.2C17.19 14.4 18 13.59 18 12.6V1.8C18 0.81 17.19 0 16.2 0ZM15.84 3.825L9.477 7.803C9.189 7.983 8.811 7.983 8.523 7.803L2.16 3.825C2.06975 3.77434 1.99073 3.7059 1.9277 3.62381C1.86467 3.54172 1.81896 3.4477 1.79332 3.34743C1.76768 3.24717 1.76265 3.14274 1.77854 3.04048C1.79443 2.93821 1.8309 2.84023 1.88575 2.75247C1.9406 2.66471 2.01269 2.58899 2.09765 2.5299C2.18262 2.4708 2.27868 2.42956 2.38005 2.40867C2.48141 2.38778 2.58595 2.38767 2.68736 2.40835C2.78876 2.42904 2.88492 2.47008 2.97 2.529L9 6.3L15.03 2.529C15.1151 2.47008 15.2112 2.42904 15.3126 2.40835C15.414 2.38767 15.5186 2.38778 15.62 2.40867C15.7213 2.42956 15.8174 2.4708 15.9023 2.5299C15.9873 2.58899 16.0594 2.66471 16.1142 2.75247C16.1691 2.84023 16.2056 2.93821 16.2215 3.04048C16.2373 3.14274 16.2323 3.24717 16.2067 3.34743C16.181 3.4477 16.1353 3.54172 16.0723 3.62381C16.0093 3.7059 15.9302 3.77434 15.84 3.825Z" fill="#008CAB"/>
</svg>
