<svg width="18" height="23" viewBox="0 0 18 23" fill="none" xmlns="http://www.w3.org/2000/svg">
<path id="Vector" d="M9 0C6.61392 0.00281493 4.32637 0.95193 2.63915 2.63915C0.951939 4.32636 0.0028245 6.61391 9.57508e-06 8.99999C-0.00284824 10.9499 0.634084 12.8469 1.8131 14.4C1.8131 14.4 2.05855 14.7232 2.09864 14.7698L9 22.9091L15.9046 14.7657C15.9406 14.7223 16.1869 14.4 16.1869 14.4L16.1877 14.3975C17.3661 12.8451 18.0028 10.949 18 8.99999C17.9972 6.61391 17.0481 4.32636 15.3608 2.63915C13.6736 0.95193 11.3861 0.00281493 9 0ZM9 12.2727C8.35272 12.2727 7.71997 12.0808 7.18177 11.7212C6.64358 11.3615 6.2241 10.8504 5.9764 10.2524C5.72869 9.6544 5.66388 8.99636 5.79016 8.36151C5.91644 7.72667 6.22814 7.14352 6.68583 6.68583C7.14353 6.22813 7.72668 5.91643 8.36152 5.79015C8.99637 5.66387 9.6544 5.72868 10.2524 5.97639C10.8504 6.22409 11.3616 6.64357 11.7212 7.18176C12.0808 7.71996 12.2727 8.35271 12.2727 8.99999C12.2716 9.86764 11.9265 10.6994 11.313 11.313C10.6994 11.9265 9.86765 12.2716 9 12.2727Z" fill="#008CAB"/>
</svg>
