<svg width="18" height="22" viewBox="0 0 18 22" fill="none" xmlns="http://www.w3.org/2000/svg">
<path id="Vector" d="M11.9232 12.9167C11.7927 12.874 10.9682 12.5024 11.4834 10.9362H11.476C12.8191 9.55296 13.8454 7.32717 13.8454 5.13583C13.8454 1.76636 11.6048 0 9.00082 0C6.39517 0 4.16691 1.76554 4.16691 5.13583C4.16691 7.33619 5.18751 9.57101 6.53874 10.951C7.06545 12.3325 6.12361 12.8453 5.92671 12.9175C3.19964 13.9036 0 15.7012 0 17.4758V18.1411C0 20.5589 4.68788 21.1086 9.02625 21.1086C13.3712 21.1086 18 20.5589 18 18.1411V17.4758C18 15.6479 14.7848 13.8643 11.9232 12.9167Z" fill="#008CAB"/>
</svg>
