<svg width="24" height="21" viewBox="0 0 24 21" fill="none" xmlns="http://www.w3.org/2000/svg">
<path d="M2 2H4.24242L4.54821 5.21985M4.54821 5.21985L5.17948 11.867C5.28196 12.9461 6.22549 13.7472 7.30695 13.6732L19.4563 12.8425C20.3932 12.7785 21.1593 12.0712 21.298 11.1424L22.1818 5.21985H4.54821Z" stroke="white" stroke-width="2.2" stroke-linecap="round" stroke-linejoin="round"/>
<path d="M8.72863 19.172C9.34786 19.172 9.84985 18.6914 9.84985 18.0987C9.84985 17.5059 9.34786 17.0254 8.72863 17.0254C8.10941 17.0254 7.60742 17.5059 7.60742 18.0987C7.60742 18.6914 8.10941 19.172 8.72863 19.172Z" stroke="white" stroke-width="2.2" stroke-linecap="round" stroke-linejoin="round"/>
<path d="M17.6974 19.172C18.3166 19.172 18.8186 18.6914 18.8186 18.0987C18.8186 17.5059 18.3166 17.0254 17.6974 17.0254C17.0782 17.0254 16.5762 17.5059 16.5762 18.0987C16.5762 18.6914 17.0782 19.172 17.6974 19.172Z" stroke="white" stroke-width="2.2" stroke-linecap="round" stroke-linejoin="round"/>
</svg>
