<svg width="24" height="21" viewBox="0 0 24 21" fill="none" xmlns="http://www.w3.org/2000/svg">
<path d="M2 2H4.22222L4.52525 5.33333L5.15573 12.2686C5.25437 13.3536 6.2033 14.1601 7.29001 14.0825L19.2796 13.2261C20.2187 13.159 20.9839 12.446 21.1171 11.514L22 5.33333" stroke="#3D469A" stroke-width="2.2" stroke-linecap="round" stroke-linejoin="round"/>
<path d="M13.1094 4.22168V8.66612" stroke="#3D469A" stroke-width="2.2" stroke-linecap="round" stroke-linejoin="round"/>
<path d="M10.8906 6.44434H15.3351" stroke="#3D469A" stroke-width="2.2" stroke-linecap="round" stroke-linejoin="round"/>
<path d="M8.66775 19.7779C9.2814 19.7779 9.77886 19.2804 9.77886 18.6668C9.77886 18.0531 9.2814 17.5557 8.66775 17.5557C8.0541 17.5557 7.55664 18.0531 7.55664 18.6668C7.55664 19.2804 8.0541 19.7779 8.66775 19.7779Z" stroke="#3D469A" stroke-width="2.2" stroke-linecap="round" stroke-linejoin="round"/>
<path d="M17.5545 19.7779C18.1681 19.7779 18.6656 19.2804 18.6656 18.6668C18.6656 18.0531 18.1681 17.5557 17.5545 17.5557C16.9408 17.5557 16.4434 18.0531 16.4434 18.6668C16.4434 19.2804 16.9408 19.7779 17.5545 19.7779Z" stroke="#3D469A" stroke-width="2.2" stroke-linecap="round" stroke-linejoin="round"/>
</svg>
