<svg width="16" height="16" viewBox="0 0 16 16" fill="none" xmlns="http://www.w3.org/2000/svg">
<path fill-rule="evenodd" clip-rule="evenodd" d="M2.32137 2.313C5.43516 -0.796686 10.4976 -0.763866 13.6303 2.36962C16.7646 5.50392 16.7974 10.5688 13.6828 13.6826C10.569 16.7964 5.50408 16.7644 2.36978 13.6301C1.48816 12.7521 0.822032 11.6818 0.423704 10.503C0.0253757 9.32424 -0.094315 8.0692 0.0740279 6.83641C0.0961153 6.67461 0.18157 6.52822 0.311593 6.42943C0.441616 6.33065 0.605556 6.28756 0.767349 6.30965C0.929141 6.33173 1.07553 6.41719 1.17432 6.54721C1.27311 6.67723 1.3162 6.84117 1.29411 7.00297C1.15121 8.04771 1.25252 9.11136 1.59007 10.1103C1.92762 11.1093 2.49222 12.0164 3.23951 12.7604C5.90202 15.4221 10.1875 15.4377 12.8131 12.8129C15.4378 10.1873 15.4223 5.90186 12.7606 3.23934C10.0997 0.579289 5.81669 0.562059 3.1911 3.18355L3.80483 3.18601C3.88564 3.18639 3.96559 3.20268 4.04011 3.23395C4.11462 3.26523 4.18225 3.31087 4.23913 3.36828C4.296 3.42569 4.34101 3.49374 4.37159 3.56854C4.40217 3.64335 4.41771 3.72344 4.41733 3.80426C4.41696 3.88507 4.40067 3.96501 4.36939 4.03953C4.33812 4.11405 4.29247 4.18167 4.23506 4.23855C4.17765 4.29543 4.1096 4.34044 4.0348 4.37101C3.95999 4.40159 3.8799 4.41713 3.79909 4.41676L1.7101 4.40691C1.54789 4.40605 1.39258 4.34117 1.27795 4.22639C1.16333 4.11161 1.09866 3.95621 1.09801 3.794L1.08734 1.70665C1.08691 1.62584 1.1024 1.54574 1.13293 1.47091C1.16346 1.39608 1.20842 1.328 1.26526 1.27056C1.3221 1.21311 1.3897 1.16742 1.46419 1.1361C1.53869 1.10477 1.61862 1.08843 1.69943 1.088C1.78025 1.08757 1.86035 1.10306 1.93518 1.13358C2.01 1.16411 2.07808 1.20908 2.13553 1.26592C2.19298 1.32275 2.23867 1.39035 2.26999 1.46485C2.30131 1.53934 2.31766 1.61928 2.31809 1.70009L2.32137 2.31382V2.313ZM7.99922 4.10169C8.16242 4.10169 8.31895 4.16652 8.43435 4.28192C8.54976 4.39733 8.61459 4.55385 8.61459 4.71706V7.7447L10.4861 9.61543C10.5449 9.67217 10.5919 9.74005 10.6241 9.81511C10.6564 9.89018 10.6734 9.97092 10.6742 10.0526C10.6749 10.1343 10.6594 10.2154 10.6285 10.291C10.5976 10.3667 10.5519 10.4354 10.4942 10.4932C10.4364 10.551 10.3677 10.5967 10.2921 10.6277C10.2165 10.6587 10.1355 10.6743 10.0538 10.6736C9.97208 10.6729 9.89132 10.656 9.81623 10.6238C9.74114 10.5916 9.67321 10.5447 9.61642 10.486L7.38466 8.25423V4.71788C7.38466 4.55467 7.4495 4.39815 7.5649 4.28275C7.68031 4.16734 7.83683 4.10251 8.00004 4.10251L7.99922 4.10169Z" fill="#62848b"/>
</svg>
