<svg width="21" height="18" viewBox="0 0 21 18" fill="none" xmlns="http://www.w3.org/2000/svg">
<path d="M11.6164 16.76C11.3483 16.4918 11.1976 16.1281 11.1976 15.7489C11.1976 15.3697 11.3483 15.006 11.6164 14.7378L16.3252 10.0285L1.43065 10.0185C1.05135 10.0185 0.687549 9.86778 0.419249 9.59958C0.151049 9.33138 0.000347855 8.96763 0.000347888 8.58834C0.000347922 8.20905 0.151049 7.8453 0.419249 7.5771C0.687549 7.3089 1.05135 7.15826 1.43065 7.15826L16.3266 7.16827L11.6164 2.45887C11.4798 2.32697 11.3708 2.16917 11.2959 1.99467C11.2209 1.82017 11.1814 1.63257 11.1798 1.44267C11.1781 1.25277 11.2143 1.06447 11.2862 0.888665C11.3582 0.712965 11.4644 0.553266 11.5987 0.418966C11.733 0.284766 11.8927 0.178566 12.0685 0.106666C12.2443 0.0346659 12.4326 -0.00143472 12.6225 0.000165292C12.8125 0.00186531 13.0002 0.0412656 13.1747 0.116266C13.3492 0.191166 13.507 0.300165 13.639 0.436765L18.7683 5.56367C19.1668 5.96207 19.483 6.43507 19.6987 6.95567C19.9144 7.47621 20.0254 8.03417 20.0254 8.59765C20.0254 9.16112 19.9144 9.71908 19.6987 10.2396C19.483 10.7602 19.1668 11.2332 18.7683 11.6316L13.639 16.76C13.3707 17.0281 13.007 17.1787 12.6277 17.1787C12.2484 17.1787 11.8846 17.0281 11.6164 16.76Z" fill="#9D9D9D"/>
</svg>
