<svg width="21" height="18" viewBox="0 0 21 18" fill="none" xmlns="http://www.w3.org/2000/svg">
<path d="M11.6161 0.41872C11.348 0.6869 11.1973 1.05058 11.1973 1.42978C11.1973 1.80898 11.348 2.17268 11.6161 2.44088L16.3249 7.15028L1.43038 7.16028C1.05102 7.16028 0.6872 7.31088 0.41895 7.57908C0.1507 7.84728 0 8.21108 0 8.59038C0 8.96968 0.1507 9.33338 0.41895 9.60158C0.6872 9.86978 1.05102 10.0205 1.43038 10.0205L16.3264 10.0105L11.6161 14.7198C11.4795 14.8518 11.3705 15.0096 11.2956 15.184C11.2206 15.3585 11.1812 15.5462 11.1795 15.7361C11.1779 15.926 11.214 16.1143 11.286 16.29C11.3579 16.4658 11.4641 16.6255 11.5984 16.7597C11.7327 16.894 11.8924 17.0002 12.0682 17.0721C12.244 17.144 12.4323 17.1802 12.6223 17.1786C12.8122 17.1769 12.9999 17.1374 13.1744 17.0625C13.3489 16.9875 13.5067 16.8786 13.6387 16.742L18.768 11.6151C19.1666 11.2167 19.4827 10.7437 19.6984 10.2231C19.9141 9.70248 20.0251 9.14458 20.0251 8.58108C20.0251 8.01758 19.9141 7.45968 19.6984 6.93908C19.4827 6.41848 19.1666 5.94548 18.768 5.54708L13.6387 0.41872C13.3704 0.15061 13.0067 0 12.6274 0C12.2481 0 11.8844 0.15061 11.6161 0.41872Z" fill="white"/>
</svg>
