<svg width="21" height="18" viewBox="0 0 21 18" fill="none" xmlns="http://www.w3.org/2000/svg">
<path d="M8.40898 0.418717C8.67713 0.686902 8.82778 1.05059 8.82778 1.4298C8.82778 1.80901 8.67713 2.1727 8.40898 2.44089L3.70018 7.15024L18.5947 7.16025C18.974 7.16025 19.3378 7.31092 19.6061 7.57912C19.8743 7.84732 20.025 8.21107 20.025 8.59036C20.025 8.96965 19.8743 9.3334 19.6061 9.6016C19.3378 9.8698 18.974 10.0204 18.5947 10.0204L3.69875 10.0104L8.40898 14.7198C8.5456 14.8517 8.65457 15.0095 8.72953 15.184C8.80449 15.3585 8.84395 15.5461 8.8456 15.736C8.84725 15.9259 8.81106 16.1142 8.73914 16.29C8.66722 16.4657 8.56101 16.6254 8.42671 16.7597C8.29241 16.8939 8.1327 17.0001 7.95692 17.072C7.78113 17.144 7.59278 17.1801 7.40285 17.1785C7.21293 17.1768 7.02523 17.1374 6.85072 17.0624C6.67621 16.9875 6.51838 16.8785 6.38643 16.7419L1.2571 11.615C0.858553 11.2166 0.542404 10.7436 0.32671 10.223C0.111016 9.7025 0 9.14455 0 8.58107C0 8.0176 0.111016 7.45963 0.32671 6.93906C0.542404 6.41848 0.858553 5.94549 1.2571 5.54709L6.38643 0.418717C6.65466 0.150613 7.01842 0 7.3977 0C7.77699 0 8.14075 0.150613 8.40898 0.418717Z" fill="#9D9D9D"/>
</svg>
