<svg width="21" height="18" viewBox="0 0 21 18" fill="none" xmlns="http://www.w3.org/2000/svg">
<path d="M8.40933 16.76C8.67743 16.4918 8.82813 16.1281 8.82813 15.7489C8.82813 15.3697 8.67743 15.006 8.40933 14.7378L3.70053 10.0284L18.595 10.0184C18.9744 10.0184 19.3382 9.86783 19.6064 9.59963C19.8747 9.33143 20.0254 8.96763 20.0254 8.58833C20.0254 8.20903 19.8747 7.84533 19.6064 7.57713C19.3382 7.30893 18.9744 7.15823 18.595 7.15823L3.69903 7.16823L8.40933 2.45893C8.54593 2.32693 8.65493 2.16913 8.72983 1.99473C8.80483 1.82023 8.84423 1.63253 8.84593 1.44263C8.84753 1.25273 8.81143 1.06443 8.73943 0.88873C8.66753 0.71293 8.56133 0.55323 8.42703 0.41903C8.29273 0.28473 8.13303 0.178529 7.95723 0.106629C7.78143 0.0347293 7.59313 -0.00147139 7.40313 0.000128596C7.21323 0.00182858 7.02553 0.0413289 6.85103 0.116229C6.67653 0.191229 6.51873 0.30013 6.38673 0.43673L1.25743 5.56363C0.858832 5.96203 0.542731 6.43503 0.327031 6.95563C0.111331 7.47623 0.000332678 8.03413 0.000332629 8.59763C0.00033258 9.16113 0.111331 9.71903 0.327031 10.2396C0.542731 10.7602 0.858832 11.2332 1.25743 11.6316L6.38673 16.76C6.65503 17.0281 7.01873 17.1787 7.39803 17.1787C7.77733 17.1787 8.14103 17.0281 8.40933 16.76Z" fill="white"/>
</svg>
