<svg width="18" height="17" viewBox="0 0 18 17" fill="none" xmlns="http://www.w3.org/2000/svg">
<path d="M1 1H2.77778L3.0202 3.66667L3.48907 8.82417C3.5877 9.90918 4.53663 10.7156 5.62335 10.638L14.5019 10.0038C15.441 9.93676 16.2061 9.22379 16.3393 8.29176L17 3.66667" stroke="#5e8790" stroke-width="2" stroke-linecap="round" stroke-linejoin="round"/>
<path d="M9.88867 2.77778V6.33333" stroke="#5e8790" stroke-width="2" stroke-linecap="round" stroke-linejoin="round"/>
<path d="M8.11133 4.55556H11.6669" stroke="#5e8790" stroke-width="2" stroke-linecap="round" stroke-linejoin="round"/>
<path d="M6.3342 15.2222C6.82512 15.2222 7.22309 14.8243 7.22309 14.3333C7.22309 13.8424 6.82512 13.4445 6.3342 13.4445C5.84328 13.4445 5.44531 13.8424 5.44531 14.3333C5.44531 14.8243 5.84328 15.2222 6.3342 15.2222Z" stroke="#5e8790" stroke-width="2" stroke-linecap="round" stroke-linejoin="round"/>
<path d="M13.4436 15.2222C13.9345 15.2222 14.3325 14.8243 14.3325 14.3333C14.3325 13.8424 13.9345 13.4445 13.4436 13.4445C12.9527 13.4445 12.5547 13.8424 12.5547 14.3333C12.5547 14.8243 12.9527 15.2222 13.4436 15.2222Z" stroke="#5e8790" stroke-width="2" stroke-linecap="round" stroke-linejoin="round"/>
</svg>
