<svg width="10" height="17" viewBox="0 0 10 17" fill="none" xmlns="http://www.w3.org/2000/svg">
<path d="M0.3824 0.374196C0.137549 0.613866 1.11961e-08 0.938885 1.52374e-08 1.27778C1.92786e-08 1.61667 0.137549 1.94169 0.3824 2.18136L6.84743 8.50772L0.3824 14.8341C0.144489 15.0751 0.0128443 15.398 0.0158207 15.7331C0.0187962 16.0682 0.156154 16.3887 0.398309 16.6257C0.640465 16.8626 0.968043 16.997 1.31049 17C1.65294 17.0029 1.98285 16.874 2.22918 16.6412L9.6176 9.4113C9.86245 9.17163 10 8.84661 10 8.50772C10 8.16882 9.86245 7.8438 9.6176 7.60413L2.22918 0.374196C1.98425 0.134599 1.65211 9.95476e-08 1.30579 1.03677e-07C0.959466 1.07807e-07 0.627323 0.134599 0.3824 0.374196Z" fill="#3D469A"/>
</svg>
