<svg width="10" height="17" viewBox="0 0 10 17" fill="none" xmlns="http://www.w3.org/2000/svg">
<path d="M9.6176 16.6258C9.86245 16.3861 10 16.0611 10 15.7222C10 15.3833 9.86245 15.0583 9.6176 14.8186L3.15257 8.49228L9.6176 2.16593C9.85551 1.92489 9.98716 1.60205 9.98418 1.26695C9.9812 0.931845 9.84385 0.611292 9.60169 0.374333C9.35954 0.137371 9.03196 0.00296031 8.68951 4.96947e-05C8.34706 -0.00286283 8.01715 0.125958 7.77082 0.358765L0.382399 7.5887C0.137549 7.82837 1.05495e-07 8.15339 1.01453e-07 8.49228C9.74122e-08 8.83118 0.137549 9.1562 0.382399 9.39587L7.77082 16.6258C8.01575 16.8654 8.34789 17 8.69421 17C9.04053 17 9.37268 16.8654 9.6176 16.6258Z" fill="#3D469A"/>
</svg>
