<svg width="25" height="24" viewBox="0 0 25 24" fill="none" xmlns="http://www.w3.org/2000/svg">
<path d="M17.1444 1.99982C18.4693 2.00378 19.7389 2.53187 20.6758 3.46876C21.6127 4.40566 22.1408 5.67522 22.1447 7.00018V16.9998C22.1408 18.3248 21.6127 19.5943 20.6758 20.5312C19.7389 21.4681 18.4693 21.9962 17.1444 22.0002H7.14471C5.81975 21.9962 4.55019 21.4681 3.61329 20.5312C2.6764 19.5943 2.14831 18.3248 2.14435 16.9998V7.00018C2.14831 5.67522 2.6764 4.40566 3.61329 3.46876C4.55019 2.53187 5.81975 2.00378 7.14471 1.99982H17.1444ZM17.1444 0H7.14471C3.29453 0 0.144531 3.15 0.144531 7.00018V16.9998C0.144531 20.85 3.29453 24 7.14471 24H17.1444C20.9945 24 24.1445 20.85 24.1445 16.9998V7.00018C24.1445 3.15 20.9945 0 17.1444 0Z" fill="#45727c"/>
<path d="M18.6444 7.00024C18.3477 7.00024 18.0577 6.91227 17.811 6.74745C17.5643 6.58263 17.3721 6.34836 17.2585 6.07427C17.145 5.80018 17.1153 5.49858 17.1732 5.20761C17.2311 4.91664 17.3739 4.64936 17.5837 4.43958C17.7935 4.22981 18.0607 4.08694 18.3517 4.02907C18.6427 3.97119 18.9443 4.00089 19.2184 4.11443C19.4925 4.22796 19.7267 4.42022 19.8916 4.66689C20.0564 4.91356 20.1444 5.20357 20.1444 5.50024C20.1448 5.69735 20.1063 5.89259 20.031 6.07477C19.9558 6.25695 19.8453 6.42248 19.706 6.56185C19.5666 6.70122 19.4011 6.81169 19.2189 6.88693C19.0367 6.96216 18.8415 7.00067 18.6444 7.00024ZM12.1445 7.99989C12.9357 7.99989 13.7091 8.23449 14.3669 8.67404C15.0247 9.11358 15.5375 9.73833 15.8402 10.4693C16.143 11.2002 16.2222 12.0045 16.0679 12.7805C15.9135 13.5564 15.5325 14.2692 14.9731 14.8286C14.4137 15.3881 13.7009 15.769 12.9249 15.9234C12.149 16.0777 11.3447 15.9985 10.6137 15.6957C9.88279 15.393 9.25805 14.8803 8.81851 14.2224C8.37896 13.5646 8.14436 12.7912 8.14436 12.0001C8.14549 10.9395 8.5673 9.9227 9.31723 9.17277C10.0672 8.42283 11.084 8.00102 12.1445 7.99989ZM12.1445 6.00007C10.9578 6.00007 9.79781 6.35196 8.81111 7.01125C7.82442 7.67054 7.05538 8.60761 6.60126 9.70397C6.14713 10.8003 6.02831 12.0067 6.25982 13.1706C6.49133 14.3345 7.06278 15.4036 7.90189 16.2427C8.74101 17.0818 9.81011 17.6533 10.974 17.8848C12.1379 18.1163 13.3443 17.9975 14.4406 17.5433C15.537 17.0892 16.4741 16.3202 17.1334 15.3335C17.7926 14.3468 18.1445 13.1868 18.1445 12.0001C18.1445 10.4088 17.5124 8.88264 16.3872 7.75743C15.262 6.63221 13.7358 6.00007 12.1445 6.00007Z" fill="#45727c"/>
</svg>
