<svg width="25" height="20" viewBox="0 0 25 20" fill="none" xmlns="http://www.w3.org/2000/svg">
<path d="M24.1445 2.27501C23.2443 2.66618 22.2917 2.9239 21.317 3.04001C22.3414 2.4402 23.1117 1.48729 23.4835 0.360008C22.5151 0.926304 21.4573 1.32364 20.3555 1.53501C19.8916 1.04877 19.3336 0.661961 18.7155 0.398081C18.0974 0.134201 17.4321 -0.00123366 16.76 8.46721e-06C14.039 8.46721e-06 11.837 2.17001 11.837 4.84501C11.8351 5.21709 11.8777 5.58807 11.964 5.95001C10.0129 5.85854 8.10229 5.3608 6.35452 4.48864C4.60675 3.61647 3.06027 2.38909 1.81403 0.885008C1.37682 1.62207 1.1456 2.46303 1.14453 3.32001C1.14453 5.00001 2.02103 6.48501 3.34453 7.35501C2.5604 7.3364 1.79233 7.12886 1.10553 6.75001V6.81001C1.10553 9.16001 2.80553 11.115 5.05553 11.56C4.63242 11.6728 4.19642 11.7299 3.75853 11.73C3.44782 11.7306 3.13782 11.7004 2.83303 11.64C3.45853 13.565 5.27903 14.965 7.43553 15.005C5.68322 16.3555 3.53184 17.0854 1.31953 17.08C0.92684 17.0794 0.534514 17.0561 0.144531 17.01C2.39512 18.4471 5.01125 19.2073 7.68153 19.2C16.7495 19.2 21.7035 11.815 21.7035 5.41001C21.7035 5.20001 21.698 4.99001 21.688 4.78501C22.6496 4.10104 23.4814 3.25106 24.1445 2.27501Z" fill="#45727c"/>
</svg>
