<svg width="5" height="8" viewBox="0 0 5 8" fill="none" xmlns="http://www.w3.org/2000/svg">
<path d="M0.175648 0.176092C0.0637164 0.288878 0.000836854 0.441828 0.000836856 0.601308C0.000836858 0.760787 0.0637164 0.913737 0.175648 1.02652L3.13109 4.00363L0.175648 6.98074C0.0668884 7.09417 0.00670823 7.2461 0.00806865 7.40379C0.00942907 7.56149 0.0722209 7.71233 0.182921 7.82384C0.29362 7.93536 0.44337 7.99861 0.599918 7.99998C0.756465 8.00135 0.907283 7.94073 1.01989 7.83117L4.39745 4.42885C4.50939 4.31606 4.57227 4.16311 4.57227 4.00363C4.57227 3.84415 4.50939 3.6912 4.39745 3.57842L1.01989 0.176092C0.907924 0.0633405 0.756087 4.55075e-08 0.597769 4.73954e-08C0.43945 4.92833e-08 0.287613 0.0633405 0.175648 0.176092Z" fill="#3D469A"/>
</svg>
