<svg width="583" height="588" viewBox="0 0 583 588" fill="none" xmlns="http://www.w3.org/2000/svg">
<path d="M275.184 431.428C275.184 428.488 273.256 425.548 269.375 423.325C261.625 418.845 249.053 418.845 241.304 423.325C237.423 425.56 235.482 428.5 235.482 431.428V440.495C235.482 443.435 237.423 446.375 241.304 448.609C249.053 453.078 261.625 453.078 269.375 448.609C273.256 446.363 275.184 443.435 275.184 440.495V431.428Z" fill="#263238"/>
<path d="M269.421 432.392C277.171 436.873 277.171 444.152 269.421 448.609C261.671 453.066 249.1 453.078 241.35 448.609C233.6 444.14 233.588 436.849 241.35 432.392C249.112 427.935 261.671 427.923 269.421 432.392Z" fill="#37474F"/>
<path d="M275.231 431.428H235.529V440.495H275.231V431.428Z" fill="#37474F"/>
<path d="M269.421 423.36C277.171 427.829 277.171 435.12 269.421 439.566C261.671 444.011 249.1 444.046 241.35 439.566C233.6 435.085 233.588 427.806 241.35 423.36C249.112 418.915 261.671 418.845 269.421 423.36Z" fill="#455A64"/>
<path d="M261.99 425.382C265.647 427.487 265.647 430.909 261.99 433.014C259.941 434.053 257.677 434.594 255.38 434.594C253.084 434.594 250.82 434.053 248.771 433.014C245.126 430.909 245.126 427.487 248.771 425.382C250.82 424.344 253.084 423.803 255.38 423.803C257.677 423.803 259.941 424.344 261.99 425.382Z" fill="#263238"/>
<path d="M264.73 258.027H246.031V429.206H264.73V258.027Z" fill="#263238"/>
<path d="M331.737 178.976V178.846C331.561 177.87 331.349 176.882 331.102 175.895C331.135 175.999 331.163 176.105 331.185 176.212C331.032 175.542 330.855 174.872 330.667 174.201C330.738 174.448 330.797 174.695 330.855 174.942C330.667 174.201 330.456 173.472 330.232 172.731C330.338 173.049 330.444 173.378 330.526 173.696C330.409 173.272 330.279 172.849 330.15 172.425L329.938 171.755V171.661V171.732C328.358 166.936 326.277 162.32 323.729 157.961C323.647 157.808 323.564 157.655 323.47 157.502C317.061 146.6 307.771 136.64 297.398 130.454L296.893 130.148C293.918 128.421 290.763 127.025 287.485 125.985C284.759 125.123 281.922 124.668 279.064 124.633H278.077H277.477C276.983 124.633 276.501 124.727 276.03 124.797H275.595L274.796 124.95C274.454 125.021 274.113 125.103 273.784 125.197L272.867 125.468C272.867 125.468 272.867 125.468 272.808 125.468L271.891 125.797C271.585 125.926 271.279 126.056 270.997 126.197L268.974 127.373L167.121 186.173H167.039C161.523 189.266 158.183 195.581 158.183 204.554V259.955L119.857 281.123C116.061 283.216 112.888 286.28 110.664 290.002C108.44 293.724 107.245 297.97 107.2 302.305C107.156 306.641 108.265 310.91 110.412 314.676C112.559 318.443 115.669 321.571 119.422 323.741C130.095 329.898 142.199 333.138 154.52 333.138C166.841 333.138 178.945 329.898 189.618 323.741L229.32 301.397L332.49 241.786V186.373C332.461 183.89 332.209 181.414 331.737 178.976Z" fill="#797BB5"/>
<path d="M165.357 256.11V194.217L230.884 156.75L236.788 213.974L165.357 256.11Z" fill="#797BB5"/>
<path opacity="0.5" d="M165.357 256.11V194.217L230.884 156.75L236.788 213.974L165.357 256.11Z" fill="black"/>
<path d="M165.357 256.109L236.788 213.973V281.322L222.017 288.825L165.357 256.109Z" fill="#797BB5"/>
<path opacity="0.3" d="M165.357 256.109L236.788 213.973V281.322L222.017 288.825L165.357 256.109Z" fill="black"/>
<path d="M331.749 178.975L324.976 182.703L283.745 205.27L276.289 209.328L224.757 237.552C221.488 232.024 212.997 206.235 208.469 201.566C204.108 196.978 199.129 193.02 193.675 189.806C187.207 186.066 181.151 184.291 175.918 184.291C172.839 184.227 169.795 184.952 167.074 186.396L268.939 127.596L270.962 126.42C271.244 126.278 271.55 126.149 271.856 126.02L272.773 125.69C272.773 125.69 272.773 125.69 272.832 125.69L273.749 125.42C274.078 125.326 274.419 125.244 274.761 125.173L275.56 125.02H275.995C276.466 124.95 276.948 124.891 277.442 124.855H278.042H279.029C281.887 124.89 284.725 125.346 287.45 126.208C290.728 127.247 293.883 128.643 296.858 130.371L297.363 130.677C314.403 140.614 328.539 160.97 331.749 178.975Z" fill="#797BB5"/>
<g opacity="0.3">
<path d="M331.749 178.975L324.976 182.703L283.745 205.27L276.289 209.328L224.757 237.552C221.488 232.024 212.997 206.235 208.469 201.566C204.108 196.978 199.129 193.02 193.675 189.806C187.207 186.066 181.151 184.291 175.918 184.291C172.839 184.227 169.795 184.952 167.074 186.396L268.939 127.596L270.962 126.42C271.244 126.278 271.55 126.149 271.856 126.02L272.773 125.69C272.773 125.69 272.773 125.69 272.832 125.69L273.749 125.42C274.078 125.326 274.419 125.244 274.761 125.173L275.56 125.02H275.995C276.466 124.95 276.948 124.891 277.442 124.855H278.042H279.029C281.887 124.89 284.725 125.346 287.45 126.208C290.728 127.247 293.883 128.643 296.858 130.371L297.363 130.677C314.403 140.614 328.539 160.97 331.749 178.975Z" fill="black"/>
</g>
<path d="M323.4 157.584C323.494 157.725 323.589 157.878 323.671 158.031C323.624 157.843 323.542 157.69 323.4 157.584Z" fill="#797BB5"/>
<path d="M328.869 168.756C330.144 172.066 331.108 175.487 331.75 178.975L324.977 182.703L283.746 205.271L276.29 209.328L224.758 237.552L229.321 301.397L332.491 241.785V186.372C332.353 180.33 331.126 174.362 328.869 168.756Z" fill="#797BB5"/>
<path d="M327.339 165.063C326.904 164.099 326.445 163.123 325.963 162.158C326.445 163.123 326.927 164.099 327.339 165.063Z" fill="#797BB5"/>
<path d="M324.176 158.76C324.67 159.654 325.164 160.547 325.622 161.453C325.164 160.594 324.681 159.701 324.176 158.76Z" fill="#797BB5"/>
<g opacity="0.5">
<path d="M323.4 157.584C323.494 157.725 323.589 157.878 323.671 158.031C323.624 157.843 323.542 157.69 323.4 157.584Z" fill="black"/>
<path d="M328.869 168.756C330.144 172.066 331.108 175.487 331.75 178.975L324.977 182.703L283.746 205.271L276.29 209.328L224.758 237.552L229.321 301.397L332.491 241.785V186.372C332.353 180.33 331.126 174.362 328.869 168.756Z" fill="black"/>
<path d="M327.341 165.063C326.906 164.099 326.447 163.123 325.965 162.158C326.447 163.123 326.929 164.099 327.341 165.063Z" fill="black"/>
<path d="M324.178 158.76C324.672 159.654 325.166 160.547 325.624 161.453C325.166 160.594 324.683 159.701 324.178 158.76Z" fill="black"/>
</g>
<path d="M175.918 191.606C180.022 191.606 184.914 193.17 190.03 196.145C207.352 206.141 221.994 228.967 221.994 245.996V288.826L165.334 256.109V204.894C165.334 193.911 171.073 191.606 175.918 191.606ZM175.918 184.338C165.263 184.338 158.102 191.711 158.102 204.894V260.296L229.273 301.456V245.996C229.273 226.333 213.338 201.202 193.687 189.853C187.219 186.125 181.139 184.338 175.918 184.338Z" fill="#797BB5"/>
<path d="M158.101 260.297L119.775 281.465C115.979 283.558 112.806 286.622 110.582 290.344C108.358 294.066 107.163 298.312 107.118 302.647C107.074 306.982 108.182 311.252 110.33 315.018C112.477 318.785 115.587 321.913 119.34 324.083C130.013 330.239 142.117 333.48 154.438 333.48C166.759 333.48 178.863 330.239 189.536 324.083L229.32 301.398L158.101 260.297Z" fill="#797BB5"/>
<path opacity="0.2" d="M158.101 260.297L119.775 281.465C115.979 283.558 112.806 286.622 110.582 290.344C108.358 294.066 107.163 298.312 107.118 302.647C107.074 306.982 108.182 311.252 110.33 315.018C112.477 318.785 115.587 321.913 119.34 324.083C130.013 330.239 142.117 333.48 154.438 333.48C166.759 333.48 178.863 330.239 189.536 324.083L229.32 301.398L158.101 260.297Z" fill="white"/>
<path d="M253.016 284.521L245.02 289.131V211.926L253.016 207.305V284.521Z" fill="#E0E0E0"/>
<path d="M268.116 214.021L245.02 227.345V211.928L268.116 198.592V214.021Z" fill="#E0E0E0"/>
<path d="M256.463 281.804C256.322 284.408 255.569 286.941 254.265 289.199C252.962 291.457 251.144 293.376 248.96 294.799C244.809 297.151 241.445 295.258 241.445 290.472C241.596 287.877 242.354 285.354 243.66 283.107C244.965 280.86 246.781 278.951 248.96 277.536C253.099 275.078 256.463 277.018 256.463 281.804Z" fill="#797BB5"/>
<path opacity="0.2" d="M256.463 281.804C256.322 284.408 255.569 286.941 254.265 289.199C252.962 291.457 251.144 293.376 248.96 294.799C244.809 297.151 241.445 295.258 241.445 290.472C241.596 287.877 242.354 285.354 243.66 283.107C244.965 280.86 246.781 278.951 248.96 277.536C253.099 275.078 256.463 277.018 256.463 281.804Z" fill="black"/>
<path d="M258.955 283.251C258.806 285.844 258.049 288.366 256.746 290.614C255.443 292.861 253.629 294.77 251.452 296.187C247.313 298.539 243.949 296.634 243.949 291.848C244.093 289.245 244.847 286.712 246.15 284.455C247.454 282.198 249.27 280.278 251.452 278.853C255.603 276.524 258.955 278.465 258.955 283.251Z" fill="#797BB5"/>
<path d="M426.558 410.424L439.823 418.115C439.823 418.115 433.12 396.724 436.836 375.215C438.236 367.101 441.199 363.067 442.234 360.891C443.269 358.716 451.289 345.309 444.233 339.124C437.177 332.938 420.654 345.239 421.395 378.378C421.759 389.235 423.494 400.003 426.558 410.424Z" fill="#797BB5"/>
<path opacity="0.3" d="M426.558 410.424L439.823 418.115C439.823 418.115 433.12 396.724 436.836 375.215C438.236 367.101 441.199 363.067 442.234 360.891C443.269 358.716 451.289 345.309 444.233 339.124C437.177 332.938 420.654 345.239 421.395 378.378C421.759 389.235 423.494 400.003 426.558 410.424Z" fill="black"/>
<path d="M432.767 414.588C432.647 414.584 432.53 414.546 432.432 414.477C432.334 414.408 432.258 414.311 432.214 414.2C432.214 414.058 427.145 400.088 427.404 377.744C427.663 355.4 439.493 343.263 439.611 343.146C439.722 343.035 439.872 342.973 440.028 342.973C440.185 342.973 440.335 343.035 440.446 343.146C440.557 343.256 440.619 343.406 440.619 343.563C440.619 343.72 440.557 343.87 440.446 343.981C440.328 344.098 428.851 355.741 428.592 377.755C428.333 399.77 433.296 413.635 433.296 413.776C433.349 413.923 433.341 414.084 433.275 414.225C433.209 414.367 433.09 414.476 432.943 414.529C432.889 414.56 432.829 414.58 432.767 414.588Z" fill="white"/>
<path d="M436.847 416.433L458.78 429.369C458.78 429.369 468.823 427.887 468.07 418.432C467.317 408.977 463.225 406.743 468.305 402.592C473.385 398.44 474.703 398.17 474.456 394.089C474.209 390.008 471.48 388.209 470.187 386.633C468.893 385.057 465.306 381.635 467.835 376.72C470.363 371.804 473.785 367.065 468.705 364.818C465.659 363.478 460.555 365.159 457.18 368.746C453.805 372.333 450.994 374.932 447.772 375.802C444.55 376.672 437.882 376.696 438.105 382.223C438.329 387.75 439.764 389.656 438.423 392.102C435.918 396.653 425.134 399.146 436.847 416.433Z" fill="#797BB5"/>
<path d="M445.786 422.279C445.636 422.279 445.491 422.222 445.382 422.119C445.273 422.016 445.207 421.876 445.198 421.726C445.198 421.397 442.775 388.704 465.496 367.23C465.549 367.164 465.616 367.109 465.692 367.071C465.768 367.032 465.852 367.01 465.937 367.006C466.022 367.003 466.107 367.017 466.186 367.049C466.266 367.081 466.337 367.129 466.396 367.191C466.455 367.252 466.501 367.326 466.529 367.406C466.557 367.487 466.568 367.572 466.561 367.657C466.554 367.742 466.528 367.825 466.486 367.899C466.445 367.973 466.388 368.038 466.319 368.089C443.975 389.163 446.327 421.314 446.327 421.632C446.34 421.789 446.29 421.945 446.189 422.066C446.088 422.188 445.943 422.264 445.786 422.279Z" fill="white"/>
<path d="M449.713 394.242C449.565 394.243 449.422 394.187 449.313 394.087C449.204 393.987 449.137 393.849 449.125 393.701C448.951 391.188 448.271 388.736 447.125 386.493C445.979 384.249 444.392 382.261 442.457 380.648C442.395 380.602 442.342 380.545 442.301 380.479C442.261 380.413 442.234 380.339 442.222 380.263C442.21 380.186 442.213 380.108 442.231 380.033C442.249 379.958 442.282 379.887 442.328 379.824C442.373 379.762 442.431 379.709 442.497 379.668C442.563 379.628 442.636 379.601 442.713 379.589C442.789 379.577 442.867 379.58 442.942 379.598C443.018 379.617 443.088 379.649 443.151 379.695C445.241 381.394 446.956 383.507 448.189 385.901C449.421 388.296 450.145 390.919 450.313 393.607C450.319 393.685 450.31 393.764 450.285 393.838C450.261 393.913 450.222 393.982 450.17 394.041C450.119 394.1 450.056 394.149 449.986 394.183C449.915 394.218 449.838 394.238 449.76 394.242H449.713Z" fill="white"/>
<path d="M448.054 399.84C447.906 399.844 447.762 399.789 447.654 399.687C447.599 399.633 447.556 399.567 447.526 399.496C447.496 399.424 447.48 399.347 447.48 399.27C447.48 399.192 447.496 399.115 447.526 399.044C447.556 398.972 447.599 398.907 447.654 398.852C447.89 398.582 453.605 392.408 466.823 394.219C466.979 394.242 467.12 394.325 467.217 394.45C467.313 394.575 467.358 394.732 467.341 394.889C467.317 395.044 467.234 395.184 467.109 395.279C466.983 395.373 466.826 395.415 466.67 395.395C454.064 393.666 448.595 399.581 448.536 399.64C448.476 399.708 448.402 399.761 448.318 399.795C448.235 399.83 448.144 399.845 448.054 399.84Z" fill="white"/>
<path d="M185.044 224.064C183.997 224.064 182.939 224.064 181.904 223.935C181.761 223.925 181.622 223.886 181.494 223.821C181.367 223.756 181.254 223.666 181.161 223.556C181.069 223.446 181 223.319 180.958 223.182C180.916 223.046 180.902 222.902 180.916 222.759C180.943 222.473 181.082 222.209 181.302 222.024C181.522 221.839 181.806 221.748 182.092 221.771C183.488 221.9 184.89 221.936 186.29 221.877C186.576 221.874 186.851 221.981 187.06 222.176C187.268 222.371 187.393 222.639 187.408 222.924C187.417 223.209 187.314 223.486 187.12 223.695C186.926 223.904 186.658 224.029 186.373 224.041C185.914 224.064 185.479 224.064 185.044 224.064ZM190.618 223.618C190.343 223.622 190.077 223.522 189.873 223.338C189.67 223.153 189.544 222.898 189.521 222.624C189.499 222.35 189.582 222.078 189.753 221.863C189.924 221.648 190.17 221.506 190.442 221.466C191.822 221.24 193.185 220.922 194.522 220.513C194.792 220.445 195.078 220.484 195.32 220.621C195.562 220.758 195.742 220.984 195.823 221.25C195.903 221.517 195.877 221.804 195.751 222.052C195.625 222.3 195.408 222.49 195.146 222.583C193.72 223.022 192.266 223.364 190.795 223.606L190.618 223.618ZM177.682 223.312H177.47C176.015 222.999 174.578 222.606 173.166 222.136C172.894 222.042 172.67 221.846 172.54 221.589C172.411 221.332 172.386 221.034 172.472 220.76C172.566 220.488 172.763 220.264 173.021 220.137C173.278 220.009 173.575 219.988 173.848 220.078C175.179 220.517 176.533 220.878 177.906 221.16C178.045 221.188 178.178 221.243 178.296 221.323C178.414 221.403 178.515 221.506 178.593 221.625C178.67 221.744 178.724 221.878 178.749 222.018C178.774 222.159 178.772 222.302 178.741 222.442C178.693 222.683 178.564 222.9 178.376 223.058C178.188 223.216 177.951 223.306 177.706 223.312H177.682ZM198.85 221.066C198.604 221.067 198.366 220.984 198.173 220.831C197.981 220.678 197.847 220.464 197.792 220.225C197.737 219.985 197.765 219.734 197.872 219.513C197.979 219.292 198.158 219.114 198.38 219.008L199.132 218.643C199.26 218.571 199.4 218.526 199.546 218.51C199.691 218.494 199.838 218.507 199.978 218.55C200.118 218.592 200.248 218.662 200.36 218.756C200.472 218.85 200.564 218.966 200.63 219.097C200.696 219.227 200.735 219.37 200.744 219.515C200.754 219.661 200.733 219.808 200.685 219.946C200.636 220.084 200.56 220.21 200.461 220.318C200.362 220.425 200.242 220.512 200.108 220.572L199.309 220.972C199.174 221.041 199.025 221.081 198.874 221.089L198.85 221.066ZM169.45 220.607C169.291 220.606 169.135 220.57 168.992 220.501C167.649 219.876 166.342 219.177 165.075 218.408C164.954 218.331 164.849 218.23 164.767 218.113C164.684 217.995 164.626 217.862 164.595 217.722C164.564 217.581 164.561 217.436 164.586 217.295C164.61 217.153 164.663 217.018 164.74 216.897C164.818 216.776 164.918 216.671 165.036 216.588C165.153 216.506 165.286 216.447 165.426 216.416C165.567 216.385 165.712 216.382 165.853 216.407C165.995 216.432 166.13 216.484 166.251 216.562C167.454 217.287 168.694 217.946 169.968 218.537C170.185 218.647 170.359 218.825 170.463 219.045C170.568 219.265 170.596 219.513 170.543 219.75C170.49 219.988 170.36 220.201 170.173 220.356C169.986 220.511 169.752 220.6 169.509 220.607H169.45ZM162.041 216.138C161.81 216.133 161.585 216.059 161.395 215.927C160.219 215.056 159.043 214.104 157.984 213.092C157.879 212.997 157.794 212.881 157.734 212.753C157.673 212.624 157.639 212.485 157.632 212.343C157.626 212.201 157.647 212.059 157.695 211.925C157.744 211.791 157.818 211.669 157.914 211.564C158.009 211.459 158.125 211.373 158.254 211.313C158.382 211.253 158.521 211.218 158.663 211.212C158.805 211.205 158.947 211.227 159.081 211.275C159.215 211.323 159.337 211.397 159.442 211.493C160.501 212.457 161.595 213.363 162.7 214.198C162.879 214.335 163.011 214.526 163.077 214.742C163.142 214.958 163.139 215.19 163.066 215.404C162.993 215.618 162.855 215.804 162.672 215.936C162.488 216.067 162.267 216.138 162.041 216.138ZM155.656 210.317C155.505 210.318 155.356 210.287 155.218 210.226C155.08 210.165 154.957 210.076 154.856 209.964C153.88 208.894 152.916 207.753 152.022 206.577C151.935 206.465 151.872 206.336 151.835 206.199C151.798 206.061 151.789 205.918 151.808 205.777C151.845 205.493 151.994 205.235 152.222 205.06C152.449 204.886 152.737 204.809 153.022 204.846C153.306 204.884 153.564 205.033 153.739 205.26C154.597 206.436 155.515 207.471 156.455 208.506C156.551 208.611 156.625 208.734 156.674 208.868C156.722 209.001 156.743 209.143 156.737 209.285C156.73 209.427 156.696 209.566 156.635 209.695C156.575 209.824 156.49 209.939 156.385 210.035C156.2 210.203 155.964 210.302 155.714 210.317H155.656ZM150.446 203.449C150.264 203.45 150.086 203.403 149.927 203.315C149.768 203.226 149.635 203.098 149.54 202.944C149.07 202.214 148.611 201.462 148.176 200.709C147.882 200.192 147.588 199.662 147.306 199.133C147.198 198.884 147.188 198.602 147.278 198.346C147.368 198.089 147.552 197.876 147.792 197.748C148.032 197.621 148.312 197.588 148.575 197.658C148.838 197.727 149.065 197.893 149.211 198.122C149.482 198.628 149.764 199.133 150.046 199.627C150.47 200.356 150.905 201.074 151.363 201.779C151.465 201.944 151.522 202.133 151.527 202.327C151.532 202.521 151.486 202.712 151.392 202.882C151.299 203.052 151.162 203.194 150.996 203.294C150.83 203.393 150.64 203.447 150.446 203.449ZM146.401 195.805C146.188 195.806 145.979 195.744 145.801 195.627C145.624 195.51 145.484 195.343 145.401 195.147C144.825 193.782 144.307 192.383 143.86 190.995C143.816 190.86 143.799 190.718 143.81 190.576C143.821 190.434 143.86 190.296 143.925 190.17C143.989 190.043 144.078 189.93 144.186 189.838C144.294 189.745 144.419 189.675 144.554 189.631C144.829 189.546 145.126 189.572 145.381 189.704C145.636 189.836 145.829 190.064 145.918 190.337C146.342 191.666 146.836 192.995 147.388 194.3C147.461 194.464 147.492 194.643 147.477 194.822C147.463 195 147.404 195.172 147.305 195.322C147.207 195.472 147.073 195.595 146.915 195.679C146.757 195.764 146.58 195.807 146.401 195.805ZM143.766 187.573C143.519 187.571 143.279 187.485 143.087 187.329C142.895 187.173 142.761 186.956 142.708 186.715C142.394 185.266 142.158 183.802 142.002 182.328C141.976 182.045 142.062 181.762 142.243 181.542C142.424 181.322 142.684 181.182 142.967 181.152C143.118 181.117 143.274 181.117 143.425 181.152C143.504 181.006 143.617 180.881 143.754 180.787C143.891 180.693 144.048 180.632 144.213 180.611C145.583 180.422 146.936 180.123 148.259 179.718C148.533 179.632 148.83 179.659 149.085 179.792C149.34 179.925 149.531 180.155 149.617 180.429C149.703 180.703 149.676 181.001 149.542 181.255C149.409 181.51 149.18 181.702 148.905 181.787C147.467 182.226 145.996 182.552 144.507 182.763C144.417 182.775 144.327 182.775 144.237 182.763C144.378 183.939 144.578 185.115 144.825 186.221C144.856 186.36 144.859 186.504 144.833 186.644C144.808 186.784 144.755 186.918 144.677 187.037C144.599 187.157 144.498 187.259 144.38 187.339C144.262 187.419 144.13 187.475 143.99 187.503C143.92 187.542 143.845 187.57 143.766 187.585V187.573ZM140.038 183.081C138.546 183.058 137.057 182.936 135.581 182.716C135.3 182.672 135.047 182.518 134.878 182.288C134.709 182.058 134.638 181.771 134.68 181.489C134.722 181.207 134.873 180.953 135.102 180.782C135.33 180.611 135.616 180.537 135.899 180.576C137.277 180.787 138.668 180.901 140.062 180.917C140.349 180.917 140.624 181.031 140.827 181.234C141.03 181.437 141.144 181.712 141.144 181.999C141.144 182.286 141.03 182.561 140.827 182.764C140.624 182.967 140.349 183.081 140.062 183.081H140.038ZM131.501 181.811C131.403 181.828 131.304 181.828 131.207 181.811C129.776 181.392 128.373 180.882 127.008 180.282C126.745 180.168 126.537 179.954 126.431 179.687C126.326 179.421 126.33 179.123 126.444 178.859C126.558 178.595 126.772 178.388 127.038 178.282C127.305 178.176 127.603 178.181 127.867 178.295C129.151 178.848 130.471 179.316 131.818 179.694C132.093 179.776 132.324 179.962 132.462 180.213C132.601 180.464 132.636 180.759 132.559 181.035C132.491 181.262 132.351 181.462 132.16 181.604C131.97 181.746 131.738 181.822 131.501 181.823V181.811ZM152.586 180.247C152.347 180.243 152.116 180.159 151.929 180.01C151.742 179.86 151.61 179.653 151.554 179.42C151.497 179.188 151.52 178.943 151.617 178.724C151.714 178.506 151.882 178.326 152.092 178.212C153.304 177.591 154.44 176.833 155.479 175.954C155.697 175.768 155.979 175.675 156.265 175.695C156.551 175.715 156.818 175.846 157.008 176.06C157.101 176.168 157.172 176.293 157.216 176.429C157.261 176.564 157.278 176.707 157.267 176.849C157.256 176.991 157.217 177.13 157.152 177.257C157.088 177.384 156.999 177.496 156.89 177.589C155.732 178.586 154.456 179.439 153.092 180.129C152.936 180.212 152.763 180.256 152.586 180.258V180.247ZM142.884 178.977C142.596 178.97 142.322 178.851 142.122 178.644C141.922 178.437 141.811 178.159 141.814 177.871C141.838 176.384 141.952 174.899 142.155 173.426C142.17 173.281 142.214 173.14 142.284 173.013C142.355 172.885 142.45 172.773 142.565 172.683C142.68 172.593 142.812 172.528 142.952 172.49C143.093 172.452 143.24 172.444 143.385 172.464C143.529 172.485 143.668 172.534 143.792 172.61C143.917 172.685 144.025 172.785 144.11 172.904C144.195 173.022 144.256 173.157 144.287 173.299C144.319 173.441 144.322 173.588 144.296 173.732C144.106 175.116 144 176.51 143.978 177.906C143.975 178.194 143.858 178.47 143.654 178.672C143.449 178.875 143.172 178.988 142.884 178.988V178.977ZM123.551 178.424C123.362 178.421 123.176 178.373 123.01 178.283C121.724 177.534 120.483 176.709 119.294 175.813C119.179 175.73 119.083 175.624 119.01 175.502C118.937 175.381 118.889 175.246 118.869 175.105C118.849 174.965 118.858 174.822 118.895 174.685C118.931 174.548 118.995 174.42 119.082 174.308C119.167 174.193 119.273 174.097 119.396 174.023C119.518 173.95 119.653 173.902 119.794 173.881C119.935 173.86 120.079 173.868 120.217 173.902C120.355 173.937 120.485 173.999 120.599 174.084C121.724 174.943 122.902 175.728 124.127 176.436C124.335 176.555 124.498 176.739 124.591 176.959C124.683 177.18 124.7 177.426 124.638 177.657C124.576 177.888 124.439 178.092 124.249 178.238C124.059 178.383 123.826 178.461 123.586 178.459L123.551 178.424ZM158.972 174.567C158.783 174.567 158.596 174.519 158.431 174.426C158.308 174.354 158.201 174.259 158.115 174.145C158.029 174.032 157.966 173.903 157.93 173.765C157.894 173.628 157.885 173.484 157.905 173.343C157.924 173.202 157.971 173.066 158.043 172.944C158.352 172.408 158.612 171.845 158.819 171.262C159.042 170.641 159.177 169.992 159.219 169.333C159.228 169.19 159.265 169.049 159.33 168.92C159.394 168.791 159.484 168.677 159.594 168.583C159.704 168.49 159.831 168.42 159.969 168.377C160.107 168.334 160.252 168.319 160.395 168.334C160.538 168.344 160.678 168.383 160.806 168.448C160.934 168.513 161.048 168.603 161.141 168.712C161.234 168.822 161.305 168.949 161.348 169.086C161.392 169.223 161.407 169.367 161.395 169.51C161.333 170.36 161.159 171.198 160.877 172.003C160.626 172.712 160.311 173.397 159.936 174.049C159.837 174.215 159.695 174.351 159.526 174.444C159.356 174.537 159.165 174.583 158.972 174.578V174.567ZM116.636 173.226C116.355 173.224 116.086 173.115 115.883 172.92L115.166 172.191C114.378 171.38 113.614 170.521 112.885 169.627C112.704 169.404 112.619 169.119 112.649 168.833C112.678 168.548 112.82 168.285 113.043 168.105C113.266 167.924 113.552 167.839 113.838 167.868C114.123 167.898 114.385 168.04 114.566 168.263C115.248 169.11 115.977 169.921 116.718 170.686L117.389 171.368C117.49 171.468 117.571 171.586 117.626 171.718C117.681 171.849 117.71 171.99 117.71 172.132C117.71 172.275 117.681 172.416 117.626 172.547C117.571 172.678 117.49 172.797 117.389 172.897C117.197 173.098 116.937 173.22 116.66 173.238L116.636 173.226ZM144.107 170.427C144.002 170.444 143.895 170.444 143.79 170.427C143.654 170.385 143.528 170.317 143.418 170.227C143.308 170.136 143.217 170.025 143.151 169.9C143.084 169.774 143.043 169.637 143.03 169.495C143.016 169.353 143.031 169.211 143.072 169.075C143.508 167.599 144.136 166.187 144.942 164.876C145.098 164.633 145.344 164.462 145.627 164.4C145.909 164.338 146.204 164.391 146.448 164.547C146.691 164.703 146.862 164.949 146.924 165.232C146.986 165.514 146.933 165.809 146.777 166.052C146.071 167.201 145.521 168.439 145.142 169.733C145.067 169.941 144.929 170.12 144.748 170.246C144.567 170.373 144.352 170.44 144.131 170.439L144.107 170.427ZM111.179 166.523C110.999 166.523 110.821 166.478 110.663 166.392C110.505 166.306 110.371 166.181 110.274 166.029C109.468 164.79 108.726 163.51 108.051 162.195C107.92 161.939 107.896 161.642 107.984 161.369C108.073 161.095 108.266 160.868 108.522 160.737C108.777 160.606 109.075 160.582 109.348 160.67C109.622 160.758 109.849 160.952 109.98 161.207C110.618 162.458 111.321 163.675 112.085 164.853C112.191 165.016 112.25 165.205 112.258 165.399C112.265 165.593 112.22 165.786 112.128 165.957C112.035 166.127 111.898 166.27 111.731 166.37C111.564 166.469 111.374 166.522 111.179 166.523ZM159.595 166.252C159.381 166.252 159.172 166.188 158.994 166.069C158.816 165.95 158.677 165.78 158.596 165.582C158.146 164.429 157.364 163.434 156.35 162.724C156.146 162.555 156.011 162.316 155.972 162.053C155.932 161.791 155.991 161.523 156.136 161.301C156.281 161.079 156.503 160.918 156.759 160.848C157.015 160.779 157.288 160.806 157.526 160.925C158.894 161.875 159.95 163.209 160.56 164.759C160.615 164.889 160.645 165.029 160.646 165.171C160.647 165.313 160.62 165.454 160.567 165.585C160.513 165.716 160.434 165.836 160.334 165.936C160.234 166.036 160.115 166.116 159.983 166.17C159.868 166.222 159.745 166.254 159.619 166.264L159.595 166.252ZM148.811 163.359C148.636 163.359 148.463 163.315 148.307 163.234C148.151 163.152 148.018 163.033 147.918 162.889C147.837 162.772 147.781 162.64 147.751 162.5C147.722 162.361 147.72 162.218 147.747 162.078C147.773 161.938 147.826 161.805 147.904 161.686C147.982 161.566 148.082 161.464 148.2 161.384C149.546 160.452 151.109 159.881 152.739 159.726C152.885 159.704 153.034 159.713 153.176 159.751C153.318 159.79 153.451 159.856 153.566 159.948C153.682 160.039 153.778 160.153 153.847 160.283C153.917 160.413 153.96 160.555 153.973 160.702C153.986 160.849 153.968 160.996 153.922 161.136C153.876 161.276 153.801 161.405 153.704 161.515C153.606 161.625 153.486 161.714 153.353 161.776C153.219 161.839 153.075 161.873 152.927 161.878C151.658 162 150.442 162.45 149.399 163.183C149.23 163.293 149.036 163.358 148.835 163.371L148.811 163.359ZM107.216 158.844C107.001 158.842 106.79 158.777 106.612 158.655C106.434 158.534 106.296 158.362 106.217 158.161C105.676 156.809 105.182 155.41 104.758 153.987C104.71 153.849 104.69 153.702 104.699 153.556C104.709 153.41 104.748 153.268 104.814 153.138C104.881 153.007 104.973 152.892 105.085 152.798C105.197 152.704 105.327 152.634 105.467 152.592C105.607 152.549 105.754 152.536 105.9 152.552C106.045 152.569 106.185 152.614 106.313 152.686C106.44 152.759 106.551 152.856 106.64 152.972C106.728 153.088 106.792 153.222 106.828 153.363C107.24 154.716 107.71 156.068 108.228 157.362C108.328 157.629 108.321 157.924 108.207 158.186C108.092 158.447 107.88 158.654 107.616 158.761C107.499 158.818 107.37 158.85 107.24 158.855L107.216 158.844ZM104.711 150.612C104.463 150.611 104.223 150.526 104.03 150.37C103.837 150.214 103.704 149.996 103.653 149.753C103.347 148.33 103.1 146.872 102.9 145.402C102.883 145.128 102.97 144.858 103.144 144.646C103.319 144.435 103.567 144.297 103.839 144.261C104.111 144.225 104.386 144.294 104.609 144.453C104.832 144.613 104.986 144.851 105.041 145.12C105.229 146.531 105.476 147.93 105.77 149.306C105.829 149.587 105.774 149.88 105.618 150.12C105.461 150.36 105.215 150.529 104.935 150.588L104.711 150.612ZM103.535 142.038C103.259 142.036 102.994 141.929 102.793 141.739C102.593 141.55 102.471 141.291 102.453 141.015C102.453 139.839 102.359 138.663 102.359 137.487V136.582C102.372 136.297 102.493 136.028 102.699 135.83C102.905 135.633 103.18 135.523 103.465 135.523C103.607 135.523 103.747 135.552 103.878 135.607C104.009 135.663 104.127 135.744 104.226 135.846C104.325 135.948 104.402 136.069 104.453 136.201C104.504 136.334 104.528 136.475 104.523 136.617V137.487C104.523 138.663 104.523 139.745 104.617 140.862C104.629 141.006 104.611 141.151 104.566 141.288C104.522 141.425 104.45 141.551 104.356 141.661C104.262 141.77 104.147 141.86 104.019 141.925C103.89 141.989 103.75 142.028 103.606 142.038H103.535Z" fill="#263238"/>
<path d="M114.378 102.666L107.91 130.772L37.2793 115.614L114.378 102.666Z" fill="#797BB5"/>
<path opacity="0.3" d="M114.378 102.666L107.91 130.772L37.2793 115.614L114.378 102.666Z" fill="black"/>
<path d="M37.2793 115.614L125.221 113.262L145.883 145.108L37.2793 115.614Z" fill="#797BB5"/>
<path d="M37.2793 115.613L114.378 102.666L96.2087 81.5918L37.2793 115.613Z" fill="#797BB5"/>
<path d="M343.592 408.486L324.982 408.012L324.022 445.69L342.632 446.165L343.592 408.486Z" fill="#EFA1A1"/>
<path d="M319.143 257.193C319.143 257.193 317.838 321.308 318.285 346.71C318.626 365.843 321.613 423.15 321.613 423.15C321.613 423.15 333.678 431.029 346.391 424.443C346.391 424.443 353.729 366.561 351.942 349.121C351.712 347.006 351.712 344.873 351.942 342.758L363.161 245.691L319.143 257.193Z" fill="#37474F"/>
<path d="M330.457 440.472C330.457 440.472 340.77 439.296 342.852 435.933V433.745C342.852 433.745 344.639 434.698 344.298 438.32C343.993 441.683 345.333 447.41 345.533 454.396C345.546 454.966 345.425 455.531 345.18 456.045C344.935 456.56 344.572 457.01 344.122 457.359C342.123 458.9 337.901 461.264 330.457 461.581C327.846 461.699 317.403 468.39 308.713 468.39C300.022 468.39 294.342 464.086 294.342 458.065C294.342 452.044 312.064 446.599 312.064 446.599L320.578 438.367C320.578 438.367 318.92 429.394 324.342 431.546C329.763 433.698 330.457 435.933 330.457 440.472Z" fill="#37474F"/>
<path d="M328.574 445.705C328.459 445.706 328.347 445.67 328.254 445.602C328.161 445.534 328.092 445.439 328.057 445.329C326.246 439.908 320.589 438.908 320.53 438.896C320.46 438.885 320.393 438.86 320.332 438.822C320.272 438.785 320.219 438.735 320.178 438.678C320.136 438.62 320.106 438.554 320.09 438.485C320.074 438.415 320.072 438.343 320.084 438.273C320.109 438.132 320.189 438.007 320.305 437.924C320.421 437.841 320.565 437.805 320.707 437.826C322.602 438.196 324.369 439.049 325.837 440.304C327.304 441.559 328.421 443.173 329.08 444.988C329.125 445.124 329.114 445.271 329.05 445.399C328.986 445.527 328.874 445.624 328.739 445.67L328.574 445.705Z" fill="#FAFAFA"/>
<path d="M325.176 449.068C325.062 449.065 324.951 449.028 324.859 448.961C324.767 448.893 324.697 448.8 324.659 448.692C322.859 443.294 317.191 442.271 317.132 442.259C317.062 442.248 316.995 442.223 316.935 442.185C316.875 442.147 316.823 442.098 316.783 442.04C316.742 441.982 316.714 441.916 316.699 441.847C316.684 441.777 316.684 441.706 316.697 441.636C316.709 441.566 316.734 441.498 316.771 441.438C316.809 441.377 316.858 441.324 316.916 441.283C316.974 441.241 317.039 441.212 317.109 441.196C317.178 441.18 317.25 441.177 317.32 441.189C319.216 441.558 320.983 442.412 322.45 443.667C323.918 444.922 325.035 446.536 325.694 448.351C325.716 448.419 325.724 448.49 325.718 448.562C325.712 448.633 325.692 448.702 325.659 448.765C325.626 448.829 325.581 448.885 325.527 448.931C325.472 448.977 325.409 449.012 325.341 449.033C325.289 449.057 325.233 449.069 325.176 449.068Z" fill="#FAFAFA"/>
<path d="M322.225 451.984C322.113 451.985 322.004 451.95 321.913 451.884C321.822 451.819 321.754 451.726 321.719 451.62C319.92 446.21 314.252 445.187 314.193 445.175C314.116 445.172 314.041 445.153 313.972 445.119C313.903 445.085 313.842 445.036 313.794 444.977C313.745 444.917 313.71 444.848 313.69 444.774C313.67 444.699 313.667 444.622 313.679 444.546C313.692 444.47 313.721 444.398 313.763 444.334C313.806 444.27 313.862 444.216 313.927 444.175C313.993 444.135 314.066 444.108 314.142 444.098C314.218 444.088 314.296 444.095 314.369 444.117C316.266 444.483 318.035 445.336 319.503 446.591C320.97 447.847 322.087 449.462 322.743 451.279C322.787 451.414 322.777 451.562 322.713 451.69C322.649 451.818 322.537 451.915 322.401 451.961L322.225 451.984Z" fill="#FAFAFA"/>
<path d="M294.389 458.064C294.389 464.014 299.951 468.283 308.501 468.377L320.672 463.497C320.672 450.878 312.135 446.598 312.135 446.598C312.135 446.598 294.389 452.054 294.389 458.064Z" fill="#EBEBEB"/>
<path d="M345.274 454.913C343.193 456.524 338.771 459.006 330.986 459.347C328.246 459.464 317.333 466.403 308.242 466.403C302.009 466.403 297.258 464.286 294.883 460.911C296.423 465.368 301.551 468.331 308.76 468.331C317.45 468.331 327.893 461.64 330.504 461.522C337.948 461.205 342.17 458.841 344.169 457.3C344.583 456.978 344.922 456.568 345.161 456.101C345.401 455.634 345.536 455.12 345.557 454.596C345.47 454.708 345.376 454.814 345.274 454.913Z" fill="#263238"/>
<path d="M329.928 266.164C329.928 266.164 331.633 280.676 342.758 288.343L352.578 337.583L358.881 276.019L329.928 266.164Z" fill="#263238"/>
<path d="M393.841 418.815L375.281 420.266L378.219 457.842L396.778 456.391L393.841 418.815Z" fill="#EFA1A1"/>
<path d="M386.704 258.72C386.704 258.72 388.95 267.223 390.032 302.303C390.902 330.103 391.549 346.097 391.784 351.53C391.841 352.883 391.987 354.23 392.22 355.564C394.505 369.583 396.036 383.716 396.806 397.9C398.394 424.948 398.523 437.754 398.523 437.754C398.523 437.754 387.045 446.727 373.192 439.683L359.785 359.08L345.673 284.275C345.673 284.275 326.328 276.901 324.623 257.227L386.704 258.72Z" fill="#37474F"/>
<path d="M396.113 447.774L396.407 451.443C396.407 451.443 394.196 454.548 391.585 455.453C391.585 455.453 389.586 448.15 386.046 447.774C382.506 447.398 375.156 447.068 376.144 451.137C376.695 453.259 377.038 455.429 377.167 457.617L370.346 470.33C370.346 470.33 356.505 482.254 362.291 489.851C368.077 497.448 387.493 493.379 389.409 481.455C389.716 479.658 390.391 477.945 391.39 476.421C392.39 474.897 393.693 473.596 395.219 472.599C396.471 471.81 397.455 470.662 398.045 469.305C398.634 467.948 398.801 466.444 398.523 464.991C398.171 462.262 397.347 457.017 397.594 454.654C397.841 452.29 398.5 447.809 396.113 447.774Z" fill="#37474F"/>
<path d="M362.291 489.852C367.101 496.167 381.283 494.438 387.069 486.841C387.323 485.607 387.449 484.35 387.445 483.09C387.445 469.507 370.346 470.33 370.346 470.33C370.346 470.33 356.505 482.255 362.291 489.852Z" fill="#EBEBEB"/>
<path d="M398.524 464.991C398.524 464.791 398.465 464.556 398.429 464.32C398.296 465.407 397.919 466.449 397.327 467.37C396.734 468.29 395.941 469.065 395.007 469.636C393.431 470.668 392.085 472.014 391.053 473.591C390.021 475.167 389.325 476.939 389.01 478.797C387.058 491.004 367.418 495.261 361.186 487.723C361.425 488.492 361.8 489.213 362.291 489.851C368.077 497.46 387.493 493.379 389.41 481.455C389.716 479.658 390.391 477.945 391.39 476.421C392.39 474.897 393.693 473.596 395.219 472.599C396.471 471.81 397.455 470.662 398.045 469.305C398.634 467.948 398.801 466.444 398.524 464.991Z" fill="#263238"/>
<path d="M387.221 460.451C387.083 460.453 386.948 460.403 386.845 460.31C382.706 456.394 377.225 458.17 377.167 458.193C377.098 458.223 377.024 458.237 376.949 458.236C376.874 458.236 376.801 458.219 376.733 458.189C376.665 458.158 376.604 458.113 376.554 458.058C376.503 458.003 376.465 457.937 376.442 457.867C376.418 457.796 376.41 457.721 376.416 457.646C376.423 457.572 376.445 457.5 376.481 457.434C376.517 457.369 376.566 457.312 376.626 457.266C376.685 457.221 376.753 457.188 376.825 457.17C378.669 456.596 380.63 456.511 382.517 456.923C384.403 457.335 386.15 458.231 387.586 459.522C387.637 459.572 387.679 459.631 387.707 459.697C387.735 459.762 387.749 459.833 387.749 459.904C387.749 459.976 387.735 460.047 387.707 460.112C387.679 460.178 387.637 460.237 387.586 460.287C387.489 460.385 387.359 460.444 387.221 460.451Z" fill="#FAFAFA"/>
<path d="M384.846 465.167C384.712 465.166 384.582 465.116 384.482 465.026C380.342 461.11 374.862 462.885 374.803 462.909C374.666 462.954 374.516 462.943 374.387 462.878C374.258 462.813 374.16 462.699 374.115 462.562C374.07 462.425 374.081 462.275 374.146 462.146C374.211 462.017 374.325 461.919 374.462 461.874C376.306 461.305 378.266 461.223 380.152 461.635C382.037 462.047 383.784 462.94 385.223 464.226C385.321 464.329 385.376 464.466 385.376 464.608C385.376 464.751 385.321 464.888 385.223 464.99C385.124 465.095 384.99 465.158 384.846 465.167Z" fill="#FAFAFA"/>
<path d="M382.483 469.884C382.348 469.883 382.219 469.833 382.118 469.743C377.979 465.827 372.499 467.603 372.44 467.626C372.303 467.671 372.153 467.66 372.024 467.595C371.895 467.53 371.797 467.416 371.752 467.279C371.707 467.142 371.718 466.992 371.783 466.863C371.848 466.734 371.962 466.636 372.099 466.591C373.943 466.019 375.903 465.935 377.789 466.347C379.676 466.759 381.422 467.654 382.859 468.943C382.958 469.046 383.013 469.183 383.013 469.325C383.013 469.468 382.958 469.605 382.859 469.708C382.76 469.811 382.626 469.874 382.483 469.884Z" fill="#FAFAFA"/>
<path d="M263.496 106.546C262.377 101.801 261.591 96.9835 261.144 92.1286C260.861 86.4486 259.215 84.4611 255.746 87.307C252.277 90.153 244.374 98.4085 244.844 104.841C245.229 111.969 247.497 118.868 251.418 124.833L261.532 127.891L265.577 119.588L263.496 106.546Z" fill="#EFA1A1"/>
<path d="M307.337 157.961L287.074 153.48C287.074 153.48 278.442 139.498 273.444 132.124C268.446 124.751 265.612 119.647 265.612 119.647L256.204 116.789L251.406 124.892C251.406 124.892 267.176 164.088 274.491 170.756C278.172 174.072 301.951 181.434 301.951 181.434C301.951 181.434 311.935 170.897 307.337 157.961Z" fill="#EFA1A1"/>
<path d="M332.88 163.465L307.337 157.961C306.99 166.028 305.181 173.966 301.998 181.387L327.658 189.337L332.88 163.465Z" fill="#797BB5"/>
<path opacity="0.3" d="M332.88 163.465L307.337 157.961C306.99 166.028 305.181 173.966 301.998 181.387L327.658 189.337L332.88 163.465Z" fill="white"/>
<path d="M368.311 166.534L380.189 170.274L386.704 205.413L382.846 222.453C382.318 224.767 382.219 227.159 382.552 229.509L386.704 258.721C386.704 258.721 374.944 266.224 353.317 266.224C331.69 266.224 319.143 257.251 319.143 257.251L320.777 190.948C321.387 180.633 325.681 170.88 332.878 163.465L347.614 165.17L368.311 166.534Z" fill="#797BB5"/>
<path d="M330.869 110.756C330.869 110.756 319.52 120.717 329.387 142.919L340.923 112.896L330.869 110.756Z" fill="#263238"/>
<path d="M368.311 166.534L354.011 171.132L347.613 165.17V138.369H368.311V166.534Z" fill="#EFA1A1"/>
<path d="M347.613 163.465C354.599 163.465 365.253 157.244 365.253 152.881L367.605 138.334H347.613V163.465Z" fill="#CE7171"/>
<path d="M353.118 104.664C346.156 104.664 331.351 108.545 329.598 126.761C327.846 144.977 330.563 160.489 338.948 160.489C355.412 160.489 371.241 158.396 371.37 131.442C371.511 107.604 359.916 104.664 353.118 104.664Z" fill="#EFA1A1"/>
<path d="M368.312 147.354L365.63 139.122C365.429 139.291 365.184 139.4 364.923 139.435C364.662 139.471 364.397 139.431 364.158 139.321C363.919 139.212 363.716 139.036 363.573 138.816C363.429 138.595 363.352 138.338 363.349 138.075V123.375C363.349 123.375 356.505 121.434 357.234 115.672C357.234 115.672 353.706 118.812 340.288 118.812C326.869 118.812 323.588 107.417 324.929 101.137C324.929 101.137 327.422 103.712 334.525 103.712C341.628 103.712 371.205 94.7863 371.969 112.65C371.969 112.65 374.462 108.992 378.496 112.65L373.31 115.731C373.31 115.731 379.46 115.543 378.496 124.563C377.873 130.443 375.697 140.897 374.286 147.306C373.498 150.888 371.358 154.026 368.312 156.068V147.354Z" fill="#263238"/>
<path d="M342.934 132.184V143.885L336.078 141.78L342.934 132.184Z" fill="#CE7171"/>
<path d="M353.824 134.064C353.822 134.496 353.691 134.918 353.45 135.276C353.208 135.635 352.865 135.913 352.465 136.077C352.066 136.241 351.626 136.282 351.203 136.196C350.779 136.111 350.39 135.902 350.086 135.595C349.781 135.289 349.574 134.899 349.49 134.475C349.407 134.051 349.451 133.612 349.617 133.213C349.783 132.814 350.063 132.473 350.423 132.233C350.782 131.993 351.204 131.865 351.637 131.865C351.925 131.865 352.21 131.922 352.476 132.033C352.743 132.144 352.984 132.306 353.187 132.51C353.391 132.714 353.552 132.957 353.661 133.224C353.77 133.49 353.825 133.776 353.824 134.064Z" fill="#263238"/>
<path d="M337.441 132.512C337.441 132.944 337.313 133.367 337.072 133.727C336.832 134.087 336.491 134.367 336.091 134.532C335.691 134.698 335.251 134.741 334.827 134.657C334.403 134.573 334.013 134.364 333.707 134.058C333.401 133.752 333.193 133.363 333.108 132.938C333.024 132.514 333.067 132.074 333.233 131.675C333.398 131.275 333.679 130.933 334.039 130.693C334.398 130.453 334.821 130.324 335.254 130.324C335.834 130.324 336.39 130.555 336.8 130.965C337.211 131.375 337.441 131.931 337.441 132.512Z" fill="#263238"/>
<path d="M332.584 127.95L336.865 125.409C336.865 125.409 335.219 123.704 333.584 124.727C331.949 125.75 332.584 127.95 332.584 127.95Z" fill="#263238"/>
<path d="M356.093 129.537L351.801 127.009C351.801 127.009 353.447 125.304 355.082 126.327C356.716 127.35 356.093 129.537 356.093 129.537Z" fill="#263238"/>
<path d="M343.486 149.505C343.486 149.505 346.662 147.471 349.719 145.178C349.719 145.178 351.495 148.635 348.696 150.423C345.897 152.21 343.486 149.505 343.486 149.505Z" fill="#CE7171"/>
<path d="M365.441 139.239L373.015 131.031L367.57 127.762L365.441 139.239Z" fill="#253239"/>
<path d="M366.688 136.04C364.207 140.344 364.854 145.566 368.311 147.353C370.534 148.529 377.096 146.024 379.577 141.72C382.058 137.416 380.671 133.735 377.296 131.795C373.92 129.854 369.169 131.712 366.688 136.04Z" fill="#EFA1A1"/>
<path d="M347.614 165.17L344.791 169.651C344.247 170.513 343.89 171.48 343.744 172.489C343.599 173.498 343.667 174.527 343.946 175.508C344.224 176.489 344.706 177.4 345.361 178.182C346.015 178.964 346.827 179.599 347.743 180.047C349.409 180.857 351.225 181.31 353.076 181.377C354.927 181.444 356.771 181.123 358.491 180.436C360.21 179.748 361.767 178.709 363.061 177.384C364.356 176.059 365.359 174.479 366.006 172.744L368.358 166.534L358.01 162.83L347.614 165.17Z" fill="#EFA1A1"/>
<path d="M265.612 119.647C265.612 119.647 269.069 114.378 269.01 109.38C268.951 104.382 269.575 102.066 270.433 100.866C271.292 99.6666 270.327 97.9144 268.022 98.5142C266.07 99.0434 263.659 102.042 263.13 104.806C263.053 105.245 262.879 105.662 262.62 106.026C262.362 106.391 262.026 106.693 261.637 106.911C259.202 108.216 254.663 111.956 256.815 121.023L265.612 119.647Z" fill="#EFA1A1"/>
<path d="M256.368 114.849C256.26 114.832 256.164 114.772 256.1 114.684C256.036 114.596 256.01 114.486 256.027 114.379C256.252 112.742 256.861 111.183 257.803 109.826C258.745 108.469 259.994 107.353 261.448 106.57C261.788 106.387 262.081 106.129 262.306 105.815C262.53 105.501 262.679 105.14 262.741 104.759C262.764 104.653 262.827 104.561 262.918 104.501C263.008 104.442 263.118 104.42 263.224 104.441C263.275 104.451 263.325 104.471 263.369 104.5C263.413 104.529 263.451 104.567 263.48 104.61C263.51 104.654 263.53 104.703 263.541 104.755C263.551 104.807 263.551 104.86 263.541 104.912C263.452 105.407 263.252 105.875 262.957 106.282C262.661 106.689 262.278 107.025 261.836 107.264C260.491 107.987 259.336 109.019 258.465 110.274C257.595 111.528 257.033 112.971 256.826 114.484C256.822 114.539 256.806 114.593 256.781 114.641C256.755 114.69 256.719 114.732 256.676 114.767C256.633 114.801 256.584 114.826 256.531 114.84C256.477 114.854 256.422 114.857 256.368 114.849Z" fill="#CE7171"/>
<path d="M381.93 213.598L387.151 224.605L413.952 235.213L403.145 202.461L381.93 213.598Z" fill="#EFA1A1"/>
<path d="M378.602 169.779C378.602 169.779 369.665 178.964 373.534 191.912C375.711 199.366 378.52 206.621 381.931 213.597C381.931 213.597 396.995 214.044 403.099 202.46L395.419 183.08C394.208 180.033 392.301 177.311 389.851 175.133C387.401 172.954 384.475 171.378 381.307 170.532L378.602 169.779Z" fill="#797BB5"/>
<path opacity="0.3" d="M378.602 169.779C378.602 169.779 369.665 178.964 373.534 191.912C375.711 199.366 378.52 206.621 381.931 213.597C381.931 213.597 396.995 214.044 403.099 202.46L395.419 183.08C394.208 180.033 392.301 177.311 389.851 175.133C387.401 172.954 384.475 171.378 381.307 170.532L378.602 169.779Z" fill="white"/>
<path d="M385.646 222.559C392.42 224.546 412.389 230.462 412.389 230.462C412.389 230.462 412.541 230.897 413.953 235.166C416.116 241.81 409.249 257.886 384.929 246.22C360.609 234.554 351.73 228.31 351.73 228.31L354.376 213.551C354.376 213.551 377.92 220.289 385.646 222.559Z" fill="#EFA1A1"/>
<path d="M386.363 222.9L398.958 226.534L384.857 219.725L386.363 222.9Z" fill="#CE7171"/>
<path d="M350.613 234.977L334.807 233.295C334.241 233.238 333.706 233.009 333.273 232.639C332.84 232.269 332.53 231.776 332.385 231.226L323.753 198.745C323.693 198.523 323.687 198.289 323.735 198.065C323.782 197.84 323.882 197.629 324.027 197.45C324.171 197.271 324.356 197.129 324.566 197.035C324.776 196.941 325.005 196.898 325.235 196.91L340.523 197.627C341.091 197.651 341.637 197.855 342.082 198.21C342.526 198.566 342.845 199.054 342.992 199.603L352.189 233.154C352.247 233.384 352.249 233.624 352.194 233.854C352.14 234.084 352.03 234.297 351.876 234.476C351.721 234.655 351.525 234.794 351.306 234.881C351.086 234.969 350.848 235.001 350.613 234.977Z" fill="#37474F"/>
<path d="M329.928 201.673C329.928 201.943 329.847 202.207 329.697 202.432C329.546 202.656 329.333 202.831 329.083 202.934C328.833 203.037 328.558 203.063 328.293 203.01C328.028 202.956 327.785 202.825 327.595 202.633C327.404 202.441 327.275 202.197 327.224 201.932C327.173 201.666 327.201 201.392 327.306 201.143C327.412 200.894 327.588 200.681 327.814 200.533C328.04 200.384 328.305 200.306 328.575 200.309C328.935 200.312 329.279 200.457 329.532 200.712C329.785 200.968 329.928 201.313 329.928 201.673Z" fill="#263238"/>
<path d="M354.377 213.597C354.377 213.597 349.802 205.647 344.122 203.719L346.392 212.456C346.392 212.456 342.076 212.797 337.196 212.797C332.315 212.797 326.976 209.505 325.436 208.658C323.895 207.811 322.46 213.715 328.599 224.84C334.738 235.965 351.778 228.368 351.778 228.368L354.377 213.597Z" fill="#EFA1A1"/>
</svg>
