<svg width="22" height="23" viewBox="0 0 22 23" fill="none" xmlns="http://www.w3.org/2000/svg">
<path d="M8.8 3.92683H13.2C13.2 3.33171 12.9682 2.76096 12.5556 2.34015C12.1431 1.91934 11.5835 1.68293 11 1.68293C10.4165 1.68293 9.85695 1.91934 9.44437 2.34015C9.03179 2.76096 8.8 3.33171 8.8 3.92683ZM7.15 3.92683C7.15 3.41115 7.24958 2.90052 7.44306 2.4241C7.63654 1.94767 7.92013 1.51478 8.27764 1.15014C8.63515 0.785502 9.05957 0.496254 9.52667 0.298912C9.99377 0.10157 10.4944 0 11 0C11.5056 0 12.0062 0.10157 12.4733 0.298912C12.9404 0.496254 13.3649 0.785502 13.7224 1.15014C14.0799 1.51478 14.3635 1.94767 14.5569 2.4241C14.7504 2.90052 14.85 3.41115 14.85 3.92683H21.175C21.3938 3.92683 21.6036 4.01548 21.7584 4.17329C21.9131 4.33109 22 4.54512 22 4.76829C22 4.99146 21.9131 5.20549 21.7584 5.3633C21.6036 5.5211 21.3938 5.60976 21.175 5.60976H19.723L18.436 19.1977C18.3373 20.2389 17.8618 21.2052 17.1024 21.9081C16.3431 22.6111 15.3541 23.0004 14.3286 23H7.6714C6.64605 23.0001 5.65741 22.6107 4.89824 21.9078C4.13908 21.2048 3.66381 20.2387 3.5651 19.1977L2.277 5.60976H0.825C0.606196 5.60976 0.396354 5.5211 0.241637 5.3633C0.0869193 5.20549 0 4.99146 0 4.76829C0 4.54512 0.0869193 4.33109 0.241637 4.17329C0.396354 4.01548 0.606196 3.92683 0.825 3.92683H7.15ZM9.35 9.2561C9.35 9.03293 9.26308 8.8189 9.10836 8.66109C8.95365 8.50329 8.7438 8.41463 8.525 8.41463C8.3062 8.41463 8.09636 8.50329 7.94164 8.66109C7.78692 8.8189 7.7 9.03293 7.7 9.2561V17.6707C7.7 17.8939 7.78692 18.1079 7.94164 18.2657C8.09636 18.4235 8.3062 18.5122 8.525 18.5122C8.7438 18.5122 8.95365 18.4235 9.10836 18.2657C9.26308 18.1079 9.35 17.8939 9.35 17.6707V9.2561ZM13.475 8.41463C13.6938 8.41463 13.9036 8.50329 14.0584 8.66109C14.2131 8.8189 14.3 9.03293 14.3 9.2561V17.6707C14.3 17.8939 14.2131 18.1079 14.0584 18.2657C13.9036 18.4235 13.6938 18.5122 13.475 18.5122C13.2562 18.5122 13.0464 18.4235 12.8916 18.2657C12.7369 18.1079 12.65 17.8939 12.65 17.6707V9.2561C12.65 9.03293 12.7369 8.8189 12.8916 8.66109C13.0464 8.50329 13.2562 8.41463 13.475 8.41463ZM5.2074 19.0361C5.26673 19.6607 5.55197 20.2403 6.0075 20.662C6.46304 21.0837 7.05622 21.3172 7.6714 21.3171H14.3286C14.9438 21.3172 15.537 21.0837 15.9925 20.662C16.448 20.2403 16.7333 19.6607 16.7926 19.0361L18.0664 5.60976H3.9336L5.2074 19.0361Z" fill="#FF5C5C"/>
</svg>
