<svg width="24" height="25" viewBox="0 0 24 25" fill="none" xmlns="http://www.w3.org/2000/svg">
<path d="M5.83121 11.7828C6.54319 13.0659 7.36288 14.299 8.42872 15.423C9.49692 16.5545 10.8245 17.583 12.5456 18.4608C12.6732 18.5231 12.7946 18.5231 12.9023 18.4806C13.0658 18.4178 13.2325 18.2831 13.397 18.1183C13.5245 17.9912 13.6823 17.788 13.8486 17.5655C14.5096 16.6943 15.3293 15.6148 16.4853 16.1548C16.5108 16.1666 16.5302 16.1798 16.5557 16.1916L20.4137 18.4102C20.4241 18.4159 20.4388 18.4301 20.4501 18.4353C20.9594 18.7854 21.1682 19.3254 21.1739 19.9358C21.1739 20.5584 20.9448 21.2577 20.6088 21.8492C20.1647 22.6287 19.5095 23.1451 18.7545 23.4881C18.0364 23.8188 17.2365 23.996 16.4679 24.1093C15.2608 24.2875 14.1307 24.1741 12.9746 23.8183C11.8436 23.4678 10.7054 22.8909 9.46101 22.1227L9.36889 22.0637C8.79864 21.7084 8.1821 21.3262 7.57784 20.8764C5.3616 19.2039 3.10614 16.7907 1.63731 14.1341C0.405172 11.9042 -0.267591 9.49707 0.100444 7.20193C0.303596 5.9438 0.843129 4.80001 1.78377 4.04504C2.60346 3.38456 3.70851 3.02267 5.13861 3.14929C5.30302 3.16015 5.44948 3.25653 5.52554 3.39685L7.99785 7.57799C8.36021 8.04713 8.40462 8.51107 8.20761 8.97549C8.04273 9.3577 7.71296 9.70778 7.26083 10.0366C7.1276 10.15 6.96886 10.2653 6.80303 10.3862C6.2498 10.7878 5.62192 11.2508 5.83688 11.7965L5.83121 11.7828ZM10.438 9.78668C10.0563 9.68841 9.82669 9.2977 9.92543 8.91596C10.0242 8.53422 10.4144 8.30462 10.7961 8.40336C11.9541 8.70525 13.0431 9.33218 13.9242 10.1547C14.8105 10.9824 15.4979 12.0166 15.8452 13.1255C15.9623 13.5029 15.7516 13.9045 15.3746 14.0217C14.9976 14.1393 14.5956 13.9286 14.4784 13.5516C14.2067 12.6837 13.6596 11.8654 12.9496 11.2021C12.2338 10.5336 11.3584 10.0267 10.438 9.78668ZM10.533 5.40522C10.1432 5.33907 9.88149 4.96868 9.94763 4.57891C10.0133 4.18961 10.3842 3.9274 10.7735 3.99355C12.9566 4.3715 15.0293 5.47986 16.6908 7.03515C18.3534 8.59044 19.6115 10.5979 20.1647 12.7735C20.2621 13.1571 20.0301 13.5473 19.6465 13.6447C19.2628 13.742 18.8726 13.51 18.7753 13.1264C18.2887 11.2139 17.1808 9.44652 15.7162 8.07642C14.2549 6.70869 12.4384 5.73546 10.533 5.40522ZM10.9932 1.42769C10.6006 1.38281 10.3185 1.02753 10.3634 0.63493C10.4083 0.242327 10.7631 -0.0401953 11.1557 0.00468701C14.21 0.362328 17.0801 1.76313 19.3521 3.82252C21.6298 5.88664 23.3127 8.61832 23.9831 11.6283C24.0681 12.0128 23.8248 12.3946 23.4397 12.4796C23.0552 12.5647 22.6734 12.3213 22.5884 11.9363C21.9837 9.22211 20.46 6.75216 18.3945 4.8808C16.3379 3.017 13.7456 1.74943 10.9932 1.42769Z" fill="#fcfdfd"/>
</svg>
