<svg width="24" height="21" viewBox="0 0 24 21" fill="none" xmlns="http://www.w3.org/2000/svg">
<path d="M1 1.08081H3.44444L3.77778 4.62264M3.77778 4.62264L4.48389 12.1254C4.58556 13.2058 5.53019 14.008 6.61275 13.9333L20.1724 12.9977C21.1098 12.933 21.8757 12.2245 22.0132 11.295L23 4.62264H3.77778Z" stroke="#567e87" stroke-width="1.6" stroke-linecap="round" stroke-linejoin="round"/>
<path d="M8.33355 19.9706C9.00857 19.9706 9.55577 19.442 9.55577 18.79C9.55577 18.138 9.00857 17.6094 8.33355 17.6094C7.65854 17.6094 7.11133 18.138 7.11133 18.79C7.11133 19.442 7.65854 19.9706 8.33355 19.9706Z" stroke="#567e87" stroke-width="1.6" stroke-linecap="round" stroke-linejoin="round"/>
<path d="M18.1109 19.9706C18.7859 19.9706 19.3331 19.442 19.3331 18.79C19.3331 18.138 18.7859 17.6094 18.1109 17.6094C17.4359 17.6094 16.8887 18.138 16.8887 18.79C16.8887 19.442 17.4359 19.9706 18.1109 19.9706Z" stroke="#567e87" stroke-width="1.6" stroke-linecap="round" stroke-linejoin="round"/>
</svg>
