<svg width="22" height="22" viewBox="0 0 22 22" fill="none" xmlns="http://www.w3.org/2000/svg">
<path d="M1 10.7743C1 16.1093 5.477 20.4338 11 20.4338C16.523 20.4338 21 16.1093 21 10.7743C21 5.43933 16.523 1.11475 11 1.11475C5.477 1.11475 1 5.43933 1 10.7743Z" stroke="#74959c" stroke-width="1.5" stroke-linecap="round" stroke-linejoin="round"/>
<path d="M11.9989 1.16309C11.9989 1.16309 14.9989 4.97861 14.9989 10.7743C14.9989 16.5701 11.9989 20.3856 11.9989 20.3856M9.99891 20.3856C9.99891 20.3856 6.99891 16.5701 6.99891 10.7743C6.99891 4.97861 9.99891 1.16309 9.99891 1.16309M1.62891 14.1552H20.3689M1.62891 7.39349H20.3689" stroke="#74959c" stroke-width="1.5" stroke-linecap="round" stroke-linejoin="round"/>
</svg>
