<svg width="123" height="120" viewBox="0 0 123 120" fill="none" xmlns="http://www.w3.org/2000/svg">
<path d="M119.779 84.4417C119.514 84.3099 119.241 84.194 118.962 84.0945C119.045 82.7551 118.619 81.434 117.77 80.3948C113.183 75.2723 100.351 82.2959 96.2382 84.0945C95.0996 82.8521 93.6113 81.984 91.9694 81.6043C85.4866 79.8968 78.7504 78.0385 70.8759 76.0862C62.5204 74.0201 54.017 72.8476 50.6105 72.9159C41.0085 73.1237 28.5636 79.2195 24.2976 81.4535L23.939 80.1245C23.4581 78.3259 21.3607 77.364 19.1665 77.9389L3.18129 82.1138C1.20626 82.6004 -0.418734 84.3904 0.0963679 86.3826L8.44898 117.642C8.89863 119.528 11.3148 120.393 13.2215 119.83L29.2096 115.655C31.1846 115.168 32.8096 113.378 32.2973 111.386L31.0935 106.887C36.6714 105.074 36.9247 105.157 43.9341 107.513C52.0761 110.035 72.2106 117.189 78.6138 117.627C86.0671 117.627 94.0697 111.608 103.464 105.527C106.942 103.324 110.394 101.096 113.587 98.6966C118.937 94.7665 123.547 91.3714 122.673 87.9279C122.47 87.1727 122.107 86.4703 121.607 85.8686C121.108 85.267 120.484 84.7802 119.779 84.4417ZM111.324 82.0967C113.618 81.8121 115.391 81.8946 115.533 83.5822C109.887 83.5651 99.4711 89.6012 97.5388 90.9046C97.9632 89.6994 98.0459 88.4003 97.7779 87.1509C100.55 85.7906 107.115 82.7285 111.324 82.0967ZM28.3473 112.351L12.3592 116.523C12.1416 116.586 11.9121 116.594 11.6904 116.549L3.4488 85.7223C3.61798 85.5735 3.82133 85.4689 4.04074 85.4178L20.0317 81.2429C20.2484 81.1809 20.4771 81.1731 20.6976 81.2201L28.9392 112.047C28.7693 112.194 28.5662 112.299 28.3473 112.351ZM117.423 91.3315C112.747 95.3982 107.178 99.132 101.634 102.644C94.0185 107.482 83.9469 115.166 77.4954 114.124C72.9875 113.376 53.6698 107.163 45.0212 104.272C37.3174 101.685 36.4665 101.568 30.2227 103.583L25.2083 84.8685C28.3814 83.161 41.3358 76.5472 50.6873 76.331C59.5693 76.1488 81.1552 82.2475 91.1242 84.9141C93.6143 85.5715 94.8039 87.1253 94.4482 89.291C94.1038 90.9985 92.4988 92.6662 89.781 92.2735C84.7409 91.5421 64.5609 88.7759 64.3589 88.7475C62.1163 88.5141 61.6581 91.747 63.895 92.1312L70.2896 93.0106C75.1276 94.0721 79.1687 98.2213 82.931 101.48C83.2248 101.733 83.5959 101.878 83.9833 101.892C84.3707 101.906 84.7513 101.788 85.0625 101.557C89.3569 98.2982 95.2735 96.1922 99.4313 93.7448C101.352 92.4869 104.634 90.529 110.894 88.036C112.989 87.2022 114.973 86.8578 116.535 87.02C116.711 87.0771 116.896 87.104 117.081 87.0997C118.049 87.2676 119.156 87.8283 119.358 88.7589C119.367 88.7702 119.432 89.4532 117.42 91.3315H117.423ZM88.3495 95.5235C86.9104 96.2814 85.5121 97.1145 84.1604 98.0193C82.7659 96.7842 81.4056 95.5491 79.8916 94.3424C83.2725 94.8092 86.3972 95.2446 88.3495 95.5235Z" fill="#5d868f"/>
<path d="M57.804 41.3582C57.081 37.8391 57.2429 34.1956 58.275 30.7545C59.3071 27.3134 61.1773 24.1823 63.7177 21.642C64.0334 21.3207 64.2094 20.8877 64.2073 20.4372C64.2052 19.9868 64.0252 19.5554 63.7065 19.2371C63.3878 18.9187 62.9562 18.7392 62.5057 18.7377C62.0553 18.7361 61.6224 18.9126 61.3015 19.2287C58.3615 22.1675 56.197 25.7902 55.0025 29.7718C53.8079 33.7534 53.6205 37.9693 54.4572 42.0412C54.9865 44.2439 58.1739 43.5837 57.804 41.3582Z" fill="#5d868f"/>
<path d="M77.4961 50.3001V52.369C77.4961 52.8219 77.676 53.2562 77.9962 53.5764C78.3164 53.8966 78.7508 54.0765 79.2036 54.0765C79.6565 54.0765 80.0908 53.8966 80.411 53.5764C80.7312 53.2562 80.9111 52.8219 80.9111 52.369V50.2887C82.4899 50.0046 83.9825 49.362 85.2738 48.4104C87.266 46.9334 88.3673 44.9954 88.3673 42.9549C88.3673 39.4289 85.8601 36.7993 80.9111 35.1202V27.1233C82.5744 27.3924 84.1258 28.132 85.382 29.2549C86.9984 30.8344 89.3662 28.5861 87.8522 26.8957C87.7355 26.7762 85.2767 24.2547 80.9111 23.6628V21.5967C80.9111 21.1438 80.7312 20.7095 80.411 20.3893C80.0908 20.0691 79.6565 19.8892 79.2036 19.8892C78.7508 19.8892 78.3164 20.0691 77.9962 20.3893C77.676 20.7095 77.4961 21.1438 77.4961 21.5967V23.6827C73.7026 24.3799 70.6489 27.5047 70.6489 31.0136C70.6489 35.4077 74.6702 36.8591 77.4961 37.6701V46.8395C75.5089 46.4646 73.6922 45.468 72.3081 43.9936C70.8055 42.3117 68.304 44.3892 69.6814 46.1764C71.7296 48.4151 74.492 49.8728 77.4961 50.3001ZM84.9523 42.9549C84.9523 44.4205 83.1821 46.2049 80.9111 46.8054V38.7658C83.6261 39.8529 84.9523 41.236 84.9523 42.9549ZM74.064 31.0023C74.064 29.3517 75.5865 27.7751 77.4961 27.1888V34.0815C75.1397 33.3216 74.064 32.5504 74.064 31.0136V31.0023Z" fill="#5d868f"/>
<path d="M121.12 13.2724V5.6711C121.119 5.01578 120.922 4.37577 120.555 3.83286C120.188 3.28994 119.667 2.86878 119.06 2.62318C110.485 -0.874392 101.791 -0.874392 93.2135 2.62318C92.6473 2.85248 92.156 3.23478 91.7947 3.72731C91.4333 4.21985 91.2161 4.8032 91.1673 5.41213C69.5957 -3.19377 45.0245 13.6651 45.3489 36.9358C45.3609 45.8826 48.9217 54.4592 55.25 60.7837C61.5782 67.1081 70.1569 70.6639 79.1037 70.6707C99.7903 70.8727 116.063 51.4781 112.352 31.153C115.082 29.0401 117.292 26.3299 118.811 23.2304C120.331 20.131 121.121 16.7245 121.12 13.2724ZM94.571 5.75363C102.255 2.63741 110.03 2.63741 117.705 5.75363V13.2724C117.707 17.0174 116.613 20.6811 114.557 23.8115C112.501 26.9419 109.574 29.402 106.137 30.8883C102.698 29.4026 99.7707 26.9421 97.7153 23.811C95.6598 20.6798 94.5667 17.0151 94.571 13.2696V5.75363ZM109.432 36.9301C107.767 77.1649 50.4344 77.1564 48.7753 36.9301C48.5249 15.4153 71.5422 0.315181 91.1559 9.09183C91.1702 10.3554 91.1076 13.8046 91.2214 15.0112C84.3913 11.1409 75.5321 10.8335 68.4118 14.2343C68.0016 14.4264 67.6845 14.7736 67.5302 15.1995C67.376 15.6254 67.3972 16.0951 67.5893 16.5053C67.7814 16.9155 68.1286 17.2326 68.5545 17.3869C68.9804 17.5411 69.4501 17.5199 69.8603 17.3278C76.9551 13.9412 85.8342 14.8405 92.0581 19.6301C93.4009 24.2212 96.166 28.2678 99.9554 31.1871C106.151 56.3844 72.635 69.7002 59.8656 47.124C59.7632 46.9213 59.6215 46.7411 59.4486 46.5939C59.2757 46.4467 59.0752 46.3355 58.8588 46.2667C58.6424 46.1979 58.4145 46.173 58.1883 46.1934C57.9622 46.2138 57.7424 46.2791 57.5418 46.3854C57.3412 46.4918 57.1638 46.6371 57.02 46.8128C56.8762 46.9886 56.769 47.1912 56.7045 47.4089C56.64 47.6266 56.6195 47.855 56.6443 48.0807C56.6692 48.3064 56.7387 48.5249 56.849 48.7234C70.3014 73.2149 107.221 61.3732 103.931 33.6232C106.085 34.8213 107.19 34.255 109.196 33.1821C109.351 34.4245 109.429 35.6752 109.432 36.9272V36.9301Z" fill="#5d868f"/>
<path d="M103.512 21.2438C103.643 21.487 103.831 21.6947 104.06 21.8492C104.289 22.0037 104.552 22.1003 104.827 22.1308C105.101 22.1614 105.379 22.1248 105.637 22.0243C105.894 21.9239 106.123 21.7625 106.304 21.554L115.499 10.9475C116.922 9.1916 114.463 7.0515 112.918 8.71064L105.345 17.4474L103.068 13.2413C101.93 11.2862 99.0585 12.8315 100.063 14.8577L103.512 21.2438Z" fill="#5d868f"/>
</svg>
