<svg width="28" height="21" viewBox="0 0 28 21" fill="none" xmlns="http://www.w3.org/2000/svg">
<path d="M24.8889 0H3.11111C2.28599 0 1.49467 0.327777 0.911223 0.911223C0.327777 1.49467 0 2.28599 0 3.11111L0 17.1111C0 17.9362 0.327777 18.7276 0.911223 19.311C1.49467 19.8944 2.28599 20.2222 3.11111 20.2222H24.8889C25.714 20.2222 26.5053 19.8944 27.0888 19.311C27.6722 18.7276 28 17.9362 28 17.1111V3.11111C28 2.28599 27.6722 1.49467 27.0888 0.911223C26.5053 0.327777 25.714 0 24.8889 0Z" fill="#006C35"/>
<path d="M6.93908 7.03939C7.43063 7.08606 7.15919 6.20795 7.3373 6.04851C7.37074 5.96995 7.43297 5.96917 7.43763 6.06873V6.81384C7.43297 7.05651 7.59241 7.12728 7.71608 7.17784C7.84519 7.16773 7.93075 7.17239 7.9813 7.29762L8.04197 8.58717C8.04197 8.58717 8.34063 8.67273 8.35463 7.86151C8.36941 7.38551 8.25975 6.98728 8.3243 6.89473C8.32663 6.80373 8.44252 6.79828 8.52341 6.84262C8.65175 6.93284 8.7093 7.04484 8.90841 7.00051C9.21252 6.91728 9.39452 6.76951 9.39919 6.53617C9.3813 6.31451 9.35641 6.09284 9.26075 5.87117C9.27397 5.83073 9.20241 5.72651 9.21563 5.68606C9.27008 5.77162 9.3533 5.76462 9.37197 5.68606C9.32063 5.51573 9.24052 5.35239 9.10986 5.28162C9.00252 5.18673 8.84541 5.20617 8.78786 5.40373C8.76141 5.63084 8.8703 5.90151 9.03519 6.12162C9.07019 6.20795 9.11997 6.35106 9.09819 6.48017C9.0103 6.52995 8.92163 6.50973 8.84852 6.43195C8.84852 6.43195 8.60663 6.25073 8.60663 6.21028C8.67119 5.79962 8.62141 5.75295 8.58563 5.63939C8.56075 5.48228 8.48608 5.43173 8.42541 5.32439C8.36475 5.26062 8.28308 5.26062 8.24419 5.32439C8.13686 5.50951 8.18663 5.90773 8.26441 6.08584C8.31963 6.24917 8.40519 6.35262 8.36475 6.35262C8.3313 6.44517 8.26286 6.42339 8.21308 6.31684C8.14152 6.09595 8.12752 5.76695 8.12752 5.61839C8.10574 5.43484 8.08241 5.04206 7.96186 4.94251C7.88797 4.84217 7.7783 4.89039 7.74019 4.98295C7.73241 5.16495 7.73086 5.34773 7.75186 5.51651C7.8343 5.81128 7.86075 6.07106 7.90119 6.37362C7.91208 6.77884 7.66708 6.54939 7.67797 6.34873C7.73475 6.08817 7.71997 5.67751 7.66941 5.57328C7.62975 5.46984 7.5823 5.4434 7.48586 5.46051C7.40963 5.45428 7.21208 5.67051 7.15608 6.02828C7.15608 6.02828 7.10863 6.21262 7.08841 6.37673C7.06119 6.56184 6.93986 6.69251 6.8543 6.35106C6.78041 6.10295 6.7353 5.49084 6.61163 5.63395C6.57586 6.11228 6.53308 6.95384 6.93908 7.03939Z" fill="white"/>
<path d="M7.67673 7.38867C7.27228 7.39645 6.6804 7.91989 6.66406 8.21001C7.09028 8.00467 7.50951 7.80712 7.94351 7.59556C7.87351 7.49056 7.93962 7.39645 7.67673 7.38867Z" fill="white"/>
<path d="M9.90645 8.95772C10.0939 8.33317 9.87611 7.87272 9.978 7.87506C10.1934 8.10761 10.4952 7.90617 10.5613 7.82528C10.5901 7.78483 10.6609 7.75839 10.7107 7.81128C10.8794 7.93261 11.1766 7.87506 11.238 7.66195C11.2769 7.4479 11.3008 7.23142 11.3096 7.01406C11.1719 7.05683 11.0692 7.08561 11.0599 7.14239L11.0311 7.3275C11.0194 7.38739 10.9004 7.38972 10.8958 7.3135C10.8437 7.07628 10.6274 7.04517 10.4968 7.41306C10.4089 7.48461 10.2502 7.49861 10.2331 7.39206C10.2541 7.1455 10.1546 7.11206 9.95545 7.22794C9.89167 6.73872 9.82711 6.27128 9.76334 5.78206C9.84656 5.77972 9.92278 5.84117 9.99822 5.74628C9.915 5.48728 9.73922 4.95839 9.642 4.92028C9.59456 4.86272 9.55411 4.8985 9.49267 4.91328C9.38845 4.94672 9.29122 5.03694 9.32156 5.21194C9.44522 5.9625 9.52611 6.53417 9.649 7.28472C9.66767 7.37261 9.59456 7.4885 9.49967 7.47683C9.33867 7.36795 9.29822 7.14706 9.02289 7.15639C8.823 7.15872 8.59511 7.37495 8.56711 7.58417C8.53367 7.74983 8.522 7.93028 8.56711 8.07572C8.70711 8.24372 8.87589 8.22739 9.02289 8.18928C9.14345 8.1395 9.24378 8.01817 9.28578 8.04695C9.31456 8.08195 9.29278 8.48095 8.71645 8.78739C8.36722 8.94372 8.08956 8.9795 7.94022 8.69483C7.84767 8.51672 7.94722 7.84006 7.71934 7.99717C7.045 9.7355 9.29822 9.97661 9.55022 8.06872C9.57434 7.99017 9.66922 7.91161 9.68556 8.03995C9.63345 9.76817 7.94256 9.88717 7.65556 9.3435C7.584 9.21517 7.563 8.9305 7.556 8.75939C7.51322 8.4195 7.33511 8.55017 7.30711 8.88694C7.27834 9.07439 7.28611 9.12728 7.28611 9.30695C7.37556 10.6719 9.55334 10.0855 9.90645 8.95772ZM9.06645 7.77706C9.05245 7.8035 8.991 7.79261 8.94589 7.79261C8.89456 7.79028 8.87045 7.78172 8.83934 7.7405C8.82534 7.69383 8.86889 7.6495 8.88834 7.6145C8.91245 7.57328 9.04234 7.5305 9.08823 7.64561C9.09672 7.66746 9.09918 7.69119 9.09535 7.71432C9.09152 7.73744 9.08153 7.75911 9.06645 7.77706Z" fill="white"/>
<path d="M10.5801 6.22891C10.7154 6.17913 11.3571 5.44569 11.3571 5.44569C11.3236 5.41691 11.2941 5.39591 11.2606 5.36713C11.2248 5.33602 11.2287 5.30491 11.2606 5.27458C11.4193 5.18202 11.3687 4.97902 11.2855 4.88647C11.2317 4.86006 11.1724 4.84659 11.1125 4.84713C11.0525 4.84767 10.9935 4.86221 10.9402 4.88958C10.8289 4.99613 10.8025 5.16725 10.8904 5.27458C10.9759 5.31502 11.0615 5.40136 11.0047 5.4488C10.7426 5.7288 10.0239 6.2118 10.1072 6.22891C10.1251 6.25225 10.5661 6.25147 10.5801 6.22891ZM11.0553 5.07702C11.0965 5.06691 11.1494 5.10347 11.1743 5.15791C11.1992 5.21236 11.1859 5.26447 11.1455 5.27458H11.1439C11.1035 5.28469 11.0506 5.24813 11.0257 5.19369C11.0016 5.13847 11.0148 5.08713 11.0553 5.07702ZM6.89339 9.53369C6.78761 9.74913 6.74328 9.60136 6.73394 9.4808C6.72179 9.27834 6.73196 9.07515 6.76428 8.87491C6.79072 8.7038 6.76428 8.75591 6.70983 8.82514C6.4695 9.2078 6.4485 9.78025 6.5815 9.95058C6.6515 10.0315 6.76739 10.0672 6.85372 10.0408C7.00461 9.97547 7.07072 9.66902 7.03494 9.5578C6.98361 9.47925 6.94394 9.4668 6.89339 9.53369ZM14.8119 5.48302C15.0888 5.8548 15.3517 6.23358 15.6092 6.61936C15.6597 6.9538 15.6963 7.28047 15.7181 7.6048C15.7608 8.23013 15.7733 8.9068 15.7344 9.56558C15.8511 9.57025 16.0401 9.3758 16.1054 9.09191C16.1482 8.69914 16.0898 7.99991 16.0859 7.76814C16.0808 7.62287 16.0738 7.47767 16.0649 7.33258C16.3714 7.83347 16.6701 8.35769 16.9617 8.94025C17.0683 8.89047 17.0449 8.29469 16.9827 8.21069C16.7494 7.71058 16.4282 7.21591 16.3255 7.02614C16.2874 6.95614 16.1575 6.75702 16.0027 6.52914C15.9894 6.34725 15.9676 6.16609 15.9374 5.98625C15.8892 5.65336 16.0751 6.0228 16.0494 5.82913C15.9895 5.49625 15.8044 5.27147 15.5882 4.96658C15.5182 4.8678 15.5205 4.84758 15.4124 4.99069C15.3742 5.07643 15.3566 5.16993 15.3611 5.26369C15.3273 5.21406 15.2912 5.16604 15.2529 5.1198C15.1356 5.01852 15.0176 4.91793 14.8991 4.81802C14.8205 4.76202 14.6292 4.66091 14.5949 4.82891C14.579 4.94667 14.5848 5.06635 14.6121 5.18202C14.6323 5.26525 14.7528 5.40369 14.8119 5.48302ZM15.3875 5.46436C15.4023 5.52891 15.4178 5.59347 15.4279 5.65958L15.4396 5.72258C15.407 5.67698 15.373 5.63237 15.3377 5.5888C15.2102 5.43791 15.3159 5.47058 15.3875 5.46436Z" fill="white"/>
<path d="M17.0468 9.09569C16.7762 9.37802 16.3857 9.72569 15.9611 9.88669C15.9152 9.93802 16.0746 10.1581 16.2799 10.1581C16.6245 10.1177 16.9278 9.92402 17.2086 9.41458C17.2841 9.29636 17.4163 9.04202 17.4194 8.84447C17.4451 7.68869 17.3618 6.7888 17.1884 5.95347C17.1768 5.88644 17.18 5.81769 17.1977 5.75202C17.2195 5.72558 17.2957 5.75202 17.3362 5.68669C17.3945 5.62602 17.1798 5.12824 17.0569 4.93691C17.0134 4.85136 16.9986 4.7938 16.9263 4.94702C16.8501 5.07147 16.7995 5.28847 16.8057 5.49069C16.9698 6.62858 17.0204 7.62491 17.1277 8.7628C17.1363 8.87247 17.1199 9.03269 17.0468 9.09569ZM21.5813 6.21013C21.5696 6.12924 21.5338 5.94102 21.5478 5.91691C21.5696 5.85936 21.6824 5.92313 21.7228 5.85702C21.7819 5.79713 21.4319 5.34758 21.3098 5.15624C21.2655 5.07069 21.2507 5.01313 21.1784 5.16636C21.1022 5.2908 21.0757 5.51402 21.1061 5.71002C21.2888 6.94591 21.4249 7.87458 21.4529 8.97047C21.4366 9.07469 21.4335 9.13069 21.3845 9.26136C21.2764 9.3998 21.1574 9.57247 21.0446 9.65647C20.9326 9.73969 20.6938 9.8198 20.6153 9.88124C20.3687 10.0251 20.3679 10.1892 20.5686 10.1947C20.9124 10.1542 21.3199 10.1262 21.6007 9.70158C21.6762 9.58336 21.7656 9.26213 21.7695 9.06458C21.7952 7.9088 21.7547 7.04547 21.5813 6.21013ZM18.9749 7.17225C18.9781 7.01358 18.9928 6.80358 19.0014 6.67213C19.0053 6.62313 19.0169 6.56791 19.0636 6.55547C19.1111 6.54302 19.1951 6.60369 19.1958 6.55236C19.1865 6.45202 19.1663 6.30269 19.1095 6.23191C19.0317 6.1168 18.8256 6.1448 18.7891 6.32524C18.7898 6.39213 18.8202 6.42791 18.8147 6.48858C18.8054 6.5228 18.7696 6.54613 18.6848 6.50569C18.6988 6.49324 18.6296 6.39758 18.6296 6.39758C18.5635 6.35713 18.4748 6.39991 18.4181 6.43647C18.3975 6.47568 18.3852 6.5187 18.382 6.56286C18.3788 6.60701 18.3847 6.65136 18.3994 6.69313C18.4927 6.86969 18.8186 7.16913 18.9749 7.17225Z" fill="white"/>
<path d="M18.8684 5.82073C19.0963 6.09995 19.3289 6.38306 19.563 6.67084C19.6135 7.31328 19.6268 7.83906 19.6765 8.48151C19.6695 8.75373 19.5855 8.99095 19.5054 9.02517C19.5054 9.02517 19.3849 9.09517 19.304 9.01817C19.2449 8.99406 19.0092 8.62539 19.0092 8.62539C18.8886 8.51495 18.8093 8.54606 18.7238 8.62539C18.4873 8.85328 18.3808 9.28106 18.2205 9.57506C18.1785 9.64117 18.0619 9.69717 17.932 9.57039C17.603 9.12006 17.7959 8.47995 17.7554 8.64484C17.4622 8.97539 17.5913 9.52217 17.6574 9.64039C17.7539 9.83328 17.8324 9.95773 18.0206 10.0534C18.1918 10.1794 18.3255 10.1001 18.3986 10.0122C18.5713 9.83251 18.5736 9.37751 18.6545 9.28573C18.7105 9.12006 18.8544 9.14806 18.9236 9.22195C18.987 9.31141 19.0711 9.38425 19.1686 9.43428C19.3296 9.57662 19.5218 9.60228 19.7108 9.47239C19.8399 9.40006 19.9246 9.30595 20.0001 9.12006C20.0841 8.89606 20.0382 7.86628 20.0211 7.24873C20.1416 7.40428 20.2591 7.56684 20.3781 7.7294C20.4302 8.24506 20.4598 8.75839 20.4426 9.28262C20.4302 9.38762 20.8082 8.97151 20.8051 8.77395C20.8035 8.61451 20.8051 8.46984 20.8051 8.33373C20.9871 8.60751 21.1644 8.88984 21.3309 9.18851C21.4351 9.13406 21.4009 8.54684 21.3348 8.46595C21.1426 8.14395 20.8868 7.80873 20.7102 7.56917C20.6985 7.53884 20.6923 7.50462 20.6783 7.47584C20.6075 7.31173 20.6519 7.17951 20.6184 7.00528C20.5858 6.83028 20.5943 6.56895 20.5438 6.36128C20.5298 6.28039 20.4878 6.02062 20.5002 5.99651C20.5204 5.93817 20.5982 5.99806 20.6363 5.93117C20.6931 5.86895 20.4395 5.21173 20.3104 5.02351C20.2638 4.93951 20.1798 4.96828 20.0755 5.10517C19.9799 5.19539 20.0156 5.40073 20.0522 5.59595C20.1432 6.06884 20.2194 6.52228 20.2848 6.97106C20.1449 6.78512 20.0036 6.60026 19.8609 6.41651L19.8546 6.38228C19.8546 6.37373 19.8336 5.97473 19.815 5.87984C19.8119 5.84173 19.8025 5.83006 19.843 5.83473C19.8858 5.87051 19.8912 5.87284 19.9184 5.88528C19.962 5.89306 20.0001 5.81917 19.9744 5.75151L19.5723 5.01106C19.5404 4.97917 19.4984 4.94495 19.4479 5.01962C19.4165 5.04703 19.3913 5.08087 19.3742 5.11885C19.357 5.15682 19.3482 5.19805 19.3483 5.23973C19.3608 5.41473 19.3911 5.59362 19.4028 5.76939L19.4199 5.86428C19.402 5.84328 19.3802 5.81684 19.3709 5.80751C19.0294 5.44817 19.528 5.74917 19.3055 5.47151C19.1173 5.26462 19.0629 5.20006 18.9011 5.07562C18.8202 5.02351 18.7712 4.92395 18.7448 5.09351C18.7314 5.24218 18.7276 5.39156 18.7331 5.54073C18.7331 5.61228 18.8054 5.74295 18.8684 5.82073ZM11.9454 6.65995C12.1414 6.74084 12.2666 6.36751 12.3475 5.9584C12.402 5.84328 12.444 5.83084 12.472 5.88995C12.465 6.43439 12.5109 6.55495 12.6509 6.72062C12.9628 6.96173 13.221 6.75095 13.242 6.73073L13.4846 6.48806C13.5383 6.43128 13.6106 6.4274 13.6869 6.47795C13.7615 6.54484 13.7514 6.66151 13.9101 6.7424C14.0439 6.79606 14.3301 6.75484 14.3962 6.63973C14.4856 6.48728 14.5074 6.4344 14.5479 6.37684C14.6116 6.29206 14.7205 6.33017 14.7205 6.35662C14.7104 6.40406 14.6466 6.45151 14.6902 6.53628C14.7664 6.59306 14.7835 6.55651 14.8286 6.54406C14.9873 6.46784 15.1055 6.12406 15.1055 6.12406C15.1125 5.99573 15.041 6.00662 14.9943 6.03306C14.9336 6.06962 14.9298 6.08206 14.8691 6.11939C14.7913 6.13106 14.6412 6.1824 14.5673 6.06728C14.4911 5.92884 14.4895 5.73595 14.432 5.59673C14.432 5.58662 14.3309 5.37662 14.425 5.36339C14.4724 5.37195 14.5728 5.39839 14.5891 5.31439C14.6381 5.23195 14.4825 4.99706 14.3768 4.87806C14.2842 4.77695 14.1559 4.76451 14.0322 4.86795C13.9451 4.94806 13.9575 5.03673 13.9404 5.12151C13.9263 5.18133 13.9263 5.24363 13.9405 5.30344C13.9547 5.36326 13.9826 5.41894 14.0221 5.46606C14.1084 5.63639 14.2663 5.85651 14.2142 6.16451C14.2142 6.16451 14.1224 6.31073 13.9614 6.29206C13.8945 6.27728 13.7856 6.24851 13.7281 5.82073C13.6845 5.49639 13.739 5.04295 13.6013 4.83062C13.5515 4.70228 13.5158 4.57862 13.3944 4.79795C13.3618 4.88428 13.2218 5.01495 13.3236 5.28484C13.4069 5.45517 13.4403 5.73284 13.403 6.04239C13.3454 6.13028 13.333 6.15984 13.2575 6.24773C13.1518 6.36128 13.0374 6.33251 12.9495 6.28973C12.8671 6.23451 12.8033 6.20573 12.766 6.02995C12.773 5.74995 12.7885 5.29106 12.7372 5.19384C12.6618 5.04295 12.5373 5.09739 12.4836 5.14328C12.2278 5.37739 12.1018 5.77173 12.0248 6.08517C11.954 6.31384 11.8785 6.24851 11.8256 6.15595C11.6965 6.03462 11.688 5.08806 11.5316 5.24439C11.2804 5.95528 11.6732 6.73617 11.9454 6.65995Z" fill="white"/>
<path d="M15.6619 8.18668L15.5872 8.1439L14.1242 8.1369C14.0488 8.10812 14.0713 8.08323 14.1242 8.06301C14.4734 8.01557 15.0949 7.91446 15.1361 7.3179C15.1291 7.00757 15.0023 6.80379 14.6212 6.74779C14.342 6.76957 14.1421 7.04101 14.174 7.3389C14.1608 7.41979 14.2004 7.5769 14.1188 7.59479C13.5813 7.64379 12.9956 7.97979 12.9762 8.2209C12.9435 8.24346 12.8704 8.17812 12.8798 8.07546C12.8539 7.63629 12.7275 7.20894 12.5103 6.82635C12.3408 6.65679 12.3936 6.71279 12.2801 6.7929C12.207 6.8769 12.1938 6.93446 12.1976 7.10168C12.1976 7.1079 12.3345 7.48979 12.4504 7.75735C12.5274 8.0319 12.5998 8.34535 12.5476 8.64168C12.3672 9.03368 12.004 9.38523 11.654 9.57579C11.4735 9.63412 11.3188 9.61312 11.2806 9.57268C11.1694 9.49801 11.1749 9.36035 11.1834 9.35801C11.4782 9.1519 11.8158 8.98623 12.0802 8.43168C12.158 8.22012 12.1813 8.09179 12.1043 7.76435C12.0829 7.64895 12.0299 7.54178 11.9511 7.45479C11.9985 7.42368 12.1346 7.52712 12.1556 7.46568C12.1162 7.28645 12.027 7.12199 11.8982 6.99123C11.7932 6.89557 11.6789 6.88468 11.5824 6.97257C11.4735 7.03323 11.4502 7.24946 11.5023 7.43923C11.5599 7.58235 11.7162 7.60646 11.8282 7.89346C11.8282 7.89968 11.8686 8.10812 11.8111 8.18979C11.7652 8.3329 11.1702 8.80035 11.1375 8.82135C11.1212 8.84157 11.1282 8.81123 11.1259 8.73346C11.122 8.63857 11.164 8.41457 11.1523 8.41301C10.9586 8.53823 10.8941 8.92168 10.8591 9.03523C10.3691 9.37357 9.81453 9.62557 9.49409 9.96935C9.32687 10.2299 10.6436 9.6699 10.7969 9.60223C10.8311 9.62712 10.8272 9.74457 10.919 9.84957C11.0559 10.0347 11.3452 10.149 11.6291 10.0782C12.1035 9.90635 12.3781 9.58279 12.6565 9.22423C12.6962 9.1659 12.7584 9.12157 12.816 9.1659C13.0073 9.59446 13.5603 9.89779 14.2735 9.92968C14.4392 9.72823 14.3591 9.63101 14.2922 9.58901C14.2922 9.58279 13.9399 9.44901 13.8862 9.31524C13.8535 9.1939 13.9329 9.08735 14.0915 9.00646C14.5496 8.95123 15 8.88979 15.4363 8.74979C15.441 8.60357 15.5258 8.38423 15.5841 8.28935C15.6401 8.1929 15.6704 8.22168 15.6619 8.18668ZM14.4586 7.27512C14.4804 7.23857 14.5528 7.24012 14.6204 7.27979C14.6881 7.31868 14.7262 7.3809 14.7036 7.41746C14.6819 7.45479 14.6088 7.45246 14.5411 7.41279C14.4734 7.3739 14.4369 7.31246 14.4586 7.27512ZM13.8699 8.7529C13.7128 8.80657 13.5619 8.84857 13.5619 9.07568C13.6202 9.39146 13.4818 9.28335 13.4001 9.23979C13.3036 9.17057 13.0322 9.00335 12.9933 8.64246C12.9871 8.55612 13.0548 8.48379 13.1629 8.48379C13.3254 8.52812 13.5658 8.53123 13.7742 8.55301C13.9445 8.5639 14.0293 8.69768 13.8699 8.7529ZM8.45109 5.24901C8.61909 5.3299 8.93642 5.29568 8.92242 5.02346C8.92242 4.99935 8.9162 4.91846 8.91387 4.89668C8.87964 4.81657 8.78631 4.83601 8.76453 4.91923C8.75753 4.94646 8.7762 4.99001 8.75209 5.00401C8.73809 5.01801 8.68442 5.00946 8.68675 4.93479C8.68675 4.91068 8.66887 4.88501 8.65876 4.87023C8.64787 4.86323 8.64164 4.8609 8.6222 4.8609C8.59887 4.86168 8.59887 4.8679 8.58642 4.88812C8.58098 4.90757 8.5732 4.92779 8.5732 4.95035C8.57009 4.97679 8.55998 4.98612 8.54053 4.99079C8.51875 4.99079 8.52342 4.99312 8.50631 4.98146C8.49542 4.96979 8.4822 4.96512 8.4822 4.94568C8.48213 4.92295 8.47846 4.90037 8.47131 4.87879C8.46198 4.86635 8.4472 4.8609 8.43009 4.85623C8.33831 4.85623 8.33209 4.96123 8.33753 5.00168C8.32898 5.00868 8.32587 5.1969 8.45109 5.24901Z" fill="white"/>
<path d="M13.6238 7.02216C13.6238 6.99805 13.6059 6.97316 13.5958 6.95761C13.5849 6.95061 13.5787 6.94827 13.5592 6.94827C13.5359 6.94905 13.5367 6.95527 13.5234 6.9755C13.518 6.99572 13.5102 7.01516 13.5102 7.03772C13.5079 7.06494 13.497 7.07427 13.4775 7.07816C13.4558 7.07816 13.4604 7.0805 13.4425 7.06961C13.4317 7.05794 13.4184 7.05327 13.4184 7.03383C13.4184 7.01109 13.4148 6.9885 13.4075 6.96694C13.3982 6.9545 13.3834 6.94905 13.3663 6.94516C13.2745 6.94516 13.2683 7.05016 13.273 7.08983C13.266 7.09761 13.2621 7.28505 13.3873 7.33794C13.5561 7.41805 13.9567 7.37138 13.8587 7.11238C13.857 7.06979 13.8542 7.02726 13.8501 6.98483C13.8159 6.90472 13.7218 6.92494 13.7008 7.00739C13.6945 7.03461 13.7132 7.07816 13.6883 7.09216C13.6759 7.10616 13.6214 7.09761 13.6238 7.02216ZM16.2659 6.47227C16.4339 6.55316 16.7504 6.51894 16.7364 6.2475C16.7348 6.20491 16.7319 6.16237 16.7279 6.11994C16.6937 6.03983 16.6003 6.06005 16.5793 6.1425C16.5723 6.16972 16.591 6.21327 16.5661 6.22727C16.5521 6.24127 16.4984 6.2335 16.5008 6.15805C16.5008 6.13394 16.4829 6.10827 16.4728 6.0935C16.4619 6.0865 16.4557 6.08416 16.4354 6.08416C16.4121 6.08572 16.4129 6.09116 16.3997 6.11139C16.3942 6.13161 16.3864 6.15105 16.3864 6.17361C16.3833 6.20083 16.3732 6.21016 16.3538 6.21405C16.332 6.21405 16.3367 6.21639 16.3188 6.2055C16.3079 6.19383 16.2954 6.18916 16.2954 6.16972C16.2954 6.14673 16.2917 6.1239 16.2845 6.10205C16.2744 6.08961 16.2604 6.08416 16.2425 6.08027C16.1508 6.08027 16.1445 6.18527 16.15 6.22494C16.1445 6.23272 16.1407 6.42016 16.2659 6.47227ZM16.3794 5.42072C16.4393 5.58872 16.3335 5.74894 16.3965 5.77227C16.4533 5.79872 16.5342 5.59883 16.5638 5.4145C16.5988 5.26516 16.4922 4.9595 16.3413 4.8965C16.2495 4.87472 16.1189 4.92916 16.1609 5.05205C16.1399 5.11116 16.346 5.31183 16.3794 5.42072ZM17.9311 9.35938C18.0485 9.36016 18.1839 9.09105 18.2414 8.82427C18.2733 8.45716 18.2197 8.23394 18.2103 8.01772C18.2002 7.80227 17.9669 6.15727 17.9187 5.99394C17.8619 5.68516 18.1466 5.95272 18.1154 5.77305C18.0167 5.54672 17.7717 5.21772 17.6939 5.02094C17.6472 4.93694 17.6674 4.86227 17.5632 4.99916C17.4675 5.31416 17.4341 5.57083 17.4707 5.76683C17.718 7.05794 17.9715 8.13127 17.9311 9.35938ZM20.8524 5.98383C20.8797 6.06783 20.8112 6.33927 20.868 6.36416C20.9201 6.39216 20.9932 6.17672 21.0204 5.97683C21.0352 5.86716 20.9551 5.4845 20.8174 5.41605C20.7334 5.39272 20.6144 5.45105 20.6533 5.58483C20.6339 5.64939 20.8221 5.86561 20.8524 5.98383ZM10.6488 8.82738C10.6993 8.84838 10.7685 8.68972 10.795 8.54272C10.8098 8.46183 10.732 8.18105 10.6005 8.1305C10.5197 8.11338 10.4092 8.13516 10.4434 8.25494C10.4395 8.3195 10.6223 8.39727 10.6332 8.54738C10.6597 8.60961 10.5943 8.8095 10.6488 8.82738ZM7.10522 5.23794C7.13088 5.3025 7.07955 5.50861 7.13322 5.52805C7.18222 5.54983 7.25144 5.38494 7.27711 5.23327C7.29188 5.14927 7.28022 4.86461 7.08577 4.80627C7.00566 4.78839 6.89444 4.83272 6.93099 4.93461C6.91233 4.98283 7.07644 5.14772 7.10522 5.23794ZM10.9179 6.15027C10.7693 6.23116 10.711 6.47072 10.8043 6.60994C10.8907 6.73361 11.0275 6.68772 11.0462 6.68772C11.1924 6.70561 11.2788 6.41394 11.2788 6.41394C11.2788 6.41394 11.2834 6.33227 11.11 6.48705C11.0369 6.50105 11.0275 6.47383 11.0097 6.43183C10.992 6.35571 10.9999 6.27587 11.0322 6.20472C11.0571 6.13239 11.0011 6.1005 10.9179 6.15027ZM12.0394 5.2535C12.0634 5.23868 12.084 5.21897 12.0998 5.19564C12.1156 5.17232 12.1263 5.14592 12.1312 5.11816C12.1538 5.00461 12.0107 5.17183 11.9928 5.04505C11.9609 4.92761 12.0527 4.87939 12.1398 4.76583C12.1429 4.68727 12.1413 4.63205 12.0348 4.69583C11.9601 4.74639 11.8108 4.90039 11.8061 5.07772C11.8014 5.17805 11.7828 5.17727 11.8489 5.24105C11.8963 5.31027 11.9438 5.30327 12.0394 5.2535ZM13.0498 5.31416C13.1462 5.05283 13.1462 4.94239 13.1532 4.83116C13.1237 4.66239 13.0093 4.66783 12.9339 4.85527C12.9012 4.92605 12.8631 5.29861 12.8693 5.29861C12.8437 5.40983 12.9852 5.45727 13.0498 5.31416ZM19.4042 7.16761C19.4042 7.16761 18.6241 7.72216 18.6054 7.74161C18.5277 7.81005 18.5665 8.05272 18.6054 8.02472C18.6607 8.0465 19.4454 7.51372 19.4299 7.4515C19.4664 7.45305 19.4843 7.13961 19.4042 7.16761ZM19.3085 8.67183C19.3607 8.69983 19.4983 8.5295 19.4929 8.31716C19.5084 8.2075 19.4532 7.80539 19.3163 7.73694C19.2323 7.71361 19.1203 7.78516 19.1592 7.91816C19.1398 7.98194 19.2557 8.20516 19.286 8.32338C19.3132 8.40816 19.2518 8.64694 19.3085 8.67183ZM14.8908 9.83538C14.8908 9.84238 14.9569 9.89916 15.0347 9.85405C15.198 9.79105 15.3007 9.73039 15.5293 9.67983C15.5892 9.67905 15.5853 9.51805 15.4904 9.51261C15.3668 9.51883 15.2517 9.52505 15.128 9.62305C15.0518 9.64016 15.0393 9.59427 15.0222 9.55227C15.0035 9.44883 15.065 9.37727 15.0518 9.30027C15.0564 9.30494 14.981 9.23572 14.904 9.27461C14.9001 9.27461 14.7321 9.38816 14.6784 9.4675C14.645 9.49316 14.6489 9.51494 14.659 9.55772C14.6847 9.61683 14.7305 9.59894 14.7819 9.57094C14.8503 9.56161 14.883 9.60672 14.8775 9.68839C14.8449 9.79183 14.8908 9.82994 14.8908 9.83538ZM19.986 9.9645C19.9603 10.0088 19.9432 10.0757 20.0225 10.0967C20.1688 10.1379 20.5056 9.91861 20.5056 9.91472C20.56 9.8735 20.5421 9.7965 20.5374 9.7965C20.5055 9.75994 20.434 9.78094 20.3858 9.7755C20.3632 9.7755 20.287 9.76383 20.3235 9.69694C20.3493 9.66088 20.3697 9.62133 20.3842 9.5795C20.4068 9.52894 20.3873 9.4955 20.3049 9.46827C20.2217 9.45272 20.1882 9.4605 20.0957 9.46827C20.0459 9.47916 20.0288 9.50094 20.0194 9.56161C20.0233 9.65338 20.0785 9.64872 20.1361 9.68527C20.1695 9.72805 20.1913 9.76694 20.1338 9.83616C20.0793 9.88672 20.0412 9.91472 19.986 9.9645ZM19.8367 14.0012H18.67V13.6123C18.67 13.5091 18.629 13.4102 18.5561 13.3373C18.4832 13.2644 18.3842 13.2234 18.2811 13.2234C18.178 13.2234 18.079 13.2644 18.0061 13.3373C17.9332 13.4102 17.8922 13.5091 17.8922 13.6123V14.0012H8.55888C8.55888 14.0012 8.55888 14.7789 10.8922 14.7789H17.8922V15.1678C17.8922 15.271 17.9332 15.3699 18.0061 15.4428C18.079 15.5157 18.178 15.5567 18.2811 15.5567C18.3842 15.5567 18.4832 15.5157 18.5561 15.4428C18.629 15.3699 18.67 15.271 18.67 15.1678V14.7789H19.4478V15.1678C19.4478 15.271 19.4887 15.3699 19.5617 15.4428C19.6346 15.5157 19.7335 15.5567 19.8367 15.5567C19.9398 15.5567 20.0387 15.5157 20.1116 15.4428C20.1846 15.3699 20.2255 15.271 20.2255 15.1678V14.3901C20.2255 14.2869 20.1846 14.188 20.1116 14.1151C20.0387 14.0421 19.9398 14.0012 19.8367 14.0012Z" fill="white"/>
</svg>
