<svg width="19" height="13" viewBox="0 0 19 13" fill="none" xmlns="http://www.w3.org/2000/svg">
<path d="M18.1959 5.91892C16.2737 2.38475 12.9026 0.246094 9.17212 0.246094C5.44167 0.246094 2.06487 2.38475 0.159714 5.91892L0 6.18555L0.148305 6.45784C2.07057 9.99202 5.44167 12.1307 9.17212 12.1307C12.9026 12.1307 16.2794 10.0204 18.1959 6.45784L18.3442 6.18555L18.1959 5.91892ZM9.17212 10.9677C5.96074 10.9677 3.01174 9.18647 1.30053 6.18555C3.01174 3.18462 5.96074 1.40335 9.17212 1.40335C12.3835 1.40335 15.2983 3.19029 17.038 6.18555C15.2983 9.18647 12.3778 10.9677 9.17212 10.9677Z" fill="#45727c"/>
<path d="M9.33755 2.31065C8.56415 2.31626 7.80977 2.54969 7.16968 2.98145C6.5296 3.41321 6.03252 4.02394 5.74124 4.73649C5.44996 5.44904 5.37753 6.23147 5.53311 6.98493C5.68869 7.7384 6.0653 8.42911 6.61537 8.96983C7.16544 9.51056 7.86429 9.87703 8.62366 10.023C9.38304 10.1689 10.1689 10.0878 10.8819 9.78982C11.5949 9.49186 12.2032 8.99043 12.6299 8.34886C13.0565 7.7073 13.2824 6.95438 13.2791 6.18519C13.2768 5.67318 13.173 5.16665 12.9736 4.69461C12.7741 4.22257 12.483 3.79432 12.1168 3.43438C11.7507 3.07445 11.3167 2.78991 10.8398 2.59708C10.3629 2.40425 9.85237 2.30691 9.33755 2.31065ZM9.33755 8.95921C8.79125 8.95361 8.25879 8.78759 7.80705 8.48202C7.35531 8.17644 7.00442 7.74492 6.79847 7.24167C6.59252 6.73841 6.54068 6.18585 6.64947 5.65339C6.75825 5.12093 7.02281 4.63231 7.40991 4.24889C7.79701 3.86548 8.2894 3.60437 8.82523 3.49835C9.36106 3.39234 9.91645 3.44615 10.4216 3.65302C10.9268 3.8599 11.3593 4.21062 11.6647 4.66113C11.9701 5.11164 12.1348 5.64186 12.1382 6.18519C12.1398 6.55086 12.0683 6.9132 11.9279 7.25118C11.7876 7.58916 11.5812 7.89608 11.3206 8.15412C11.0601 8.41216 10.7507 8.6162 10.4103 8.7544C10.0698 8.8926 9.70523 8.96221 9.33755 8.95921Z" fill="#45727c"/>
</svg>
